<svg xmlns="http://www.w3.org/2000/svg" width="141.91" height="87.33" viewBox="0 0 141.91 87.33"><title>icons</title><path d="M105.36,77.38a16.33,16.33,0,0,1-6.18-5.06,12.62,12.62,0,0,1-1.75-3.45,3.91,3.91,0,0,1-5.22,1,3.88,3.88,0,0,1-1.06-1h0l-.06-.08a46.06,46.06,0,0,0-9-8.46,5.26,5.26,0,1,1,6.1-8.58,4.4,4.4,0,0,1,.77.66h0l0,.05a54.84,54.84,0,0,1,5.28,6.57c.85-1.29,1.72-2.56,2.63-3.8v-45s0-.11-.16-.24A1.29,1.29,0,0,0,96,9.84H25.11a1.24,1.24,0,0,0-.75.22c-.16.13-.17.21-.17.24V65.44a9.71,9.71,0,0,0,1.92,5.71,14.37,14.37,0,0,0,5.43,4.44l3.9,1.9h70.14Zm-72-54.16a.67.67,0,0,1-.67-.67V19.63A.67.67,0,0,1,33.4,19H88.11a.67.67,0,0,1,.67.67v2.92a.67.67,0,0,1-.67.67Zm40,4.08v2a.36.36,0,0,1-.36.36H48.49a.36.36,0,0,1-.35-.36v-2a.36.36,0,0,1,.35-.36H73A.36.36,0,0,1,73.38,27.3ZM53.15,55.89A1.09,1.09,0,0,1,52.06,57H46.7a1.09,1.09,0,0,1-1.09-1.08v-.55a1.08,1.08,0,0,1,1.09-1.08h5.36a1.08,1.08,0,0,1,1.09,1.08Zm3.68-13.82-3.6,2.62a.66.66,0,0,0-.24.73l1.38,4.23a.65.65,0,0,1-1,.73l-3.61-2.62a.66.66,0,0,0-.76,0l-3.6,2.62a.65.65,0,0,1-1-.73l1.37-4.23a.65.65,0,0,0-.24-.73l-3.6-2.62a.65.65,0,0,1,.39-1.18h4.45a.65.65,0,0,0,.62-.45l1.37-4.23a.65.65,0,0,1,1.24,0l1.38,4.23a.64.64,0,0,0,.62.45h4.45A.65.65,0,0,1,56.83,42.07ZM75.9,55.89A1.09,1.09,0,0,1,74.81,57H69.45a1.09,1.09,0,0,1-1.09-1.08v-.55a1.08,1.08,0,0,1,1.09-1.08h5.36a1.08,1.08,0,0,1,1.09,1.08Zm-.16-10.47,1.38,4.23a.66.66,0,0,1-1,.73l-3.6-2.62a.66.66,0,0,0-.76,0l-3.61,2.62a.65.65,0,0,1-1-.73l1.38-4.23a.65.65,0,0,0-.24-.73l-3.6-2.62a.65.65,0,0,1,.38-1.18h4.46a.63.63,0,0,0,.61-.45l1.38-4.23a.65.65,0,0,1,1.24,0l1.37,4.23a.65.65,0,0,0,.62.45H79.2a.65.65,0,0,1,.38,1.18L76,44.69A.65.65,0,0,0,75.74,45.42Z" fill="#fff"/><path d="M110.88,78.71a1,1,0,0,1-1,.78H35.21a1.13,1.13,0,0,1-.44-.1l-4.1-2a16.36,16.36,0,0,1-6.19-5.06,11.78,11.78,0,0,1-2.29-6.88V10.3a2.32,2.32,0,0,1,.95-1.83,3.26,3.26,0,0,1,2-.63H96a3.23,3.23,0,0,1,2,.63,2.29,2.29,0,0,1,.95,1.83V52.72c-.68.86-1.35,1.73-2,2.61v-45s0-.11-.16-.24A1.29,1.29,0,0,0,96,9.84H25.11a1.24,1.24,0,0,0-.75.22c-.16.13-.17.21-.17.24V65.44a9.71,9.71,0,0,0,1.92,5.71,14.37,14.37,0,0,0,5.43,4.44l3.9,1.9h70.14l-.22-.11a16.33,16.33,0,0,1-6.18-5.06,12.62,12.62,0,0,1-1.75-3.45c.06-.09.13-.17.18-.26.43-.7.9-1.38,1.35-2.07a9.93,9.93,0,0,0,1.85,4.61,14.37,14.37,0,0,0,5.43,4.44l4.11,2A1,1,0,0,1,110.88,78.71Z" fill="#ebebeb"/><path d="M118.48,44.37l-.12.08a78.77,78.77,0,0,0-22,23.38,2.45,2.45,0,0,1-3.35.8,2.5,2.5,0,0,1-.66-.59l-.07-.1a47.72,47.72,0,0,0-9.35-8.75,3.77,3.77,0,1,1,4.36-6.14,3.58,3.58,0,0,1,.55.47l.05.06a54.11,54.11,0,0,1,6.4,8.29,84.17,84.17,0,0,1,20.32-22.55h0a3.18,3.18,0,0,1,3.88,5Z" fill="#3eba8f"/><path d="M53,45.42l1.38,4.23a.65.65,0,0,1-1,.73l-3.61-2.62a.66.66,0,0,0-.76,0l-3.6,2.62a.65.65,0,0,1-1-.73l1.37-4.23a.65.65,0,0,0-.24-.73l-3.6-2.62a.65.65,0,0,1,.39-1.18h4.45a.65.65,0,0,0,.62-.45l1.37-4.23a.65.65,0,0,1,1.24,0l1.38,4.23a.64.64,0,0,0,.62.45h4.45a.65.65,0,0,1,.38,1.18l-3.6,2.62A.66.66,0,0,0,53,45.42Z" fill="#5c61ac"/><path d="M75.74,45.42l1.38,4.23a.66.66,0,0,1-1,.73l-3.6-2.62a.66.66,0,0,0-.76,0l-3.61,2.62a.65.65,0,0,1-1-.73l1.38-4.23a.65.65,0,0,0-.24-.73l-3.6-2.62a.65.65,0,0,1,.38-1.18h4.46a.63.63,0,0,0,.61-.45l1.38-4.23a.65.65,0,0,1,1.24,0l1.37,4.23a.65.65,0,0,0,.62.45H79.2a.65.65,0,0,1,.38,1.18L76,44.69A.65.65,0,0,0,75.74,45.42Z" fill="#5b5b5c"/><path d="M53.15,55.34v.55A1.09,1.09,0,0,1,52.06,57H46.7a1.09,1.09,0,0,1-1.09-1.08v-.55a1.08,1.08,0,0,1,1.09-1.08h5.36A1.08,1.08,0,0,1,53.15,55.34Z" fill="#4f59a7"/><path d="M75.9,55.34v.55A1.09,1.09,0,0,1,74.81,57H69.45a1.09,1.09,0,0,1-1.09-1.08v-.55a1.08,1.08,0,0,1,1.09-1.08h5.36A1.08,1.08,0,0,1,75.9,55.34Z" fill="#5b5b5c"/><rect x="32.73" y="18.96" width="56.05" height="4.26" rx="0.67" fill="#ebebeb"/><path d="M73.38,27.3v2a.36.36,0,0,1-.36.36H48.49a.36.36,0,0,1-.35-.36v-2a.36.36,0,0,1,.35-.36H73A.36.36,0,0,1,73.38,27.3Z" fill="#3eba8f"/></svg>