<svg xmlns="http://www.w3.org/2000/svg" width="141.91" height="87.33" viewBox="0 0 141.91 87.33"><title>icons</title><path d="M104.65,77.65l-3.14-2a12.1,12.1,0,0,1-5.59-10.2V10.3a2.46,2.46,0,0,0-2.47-2.46H39.26a2.46,2.46,0,0,0-2.47,2.46V65.44a14.11,14.11,0,0,0,6.52,11.89l3.14,2a1,1,0,0,0,.54.16h57.13a1,1,0,0,0,.53-1.84Zm-57.37-.16-2.9-1.85a12.1,12.1,0,0,1-5.59-10.2V10.3a.47.47,0,0,1,.47-.46H93.45a.47.47,0,0,1,.47.46V65.44a14.11,14.11,0,0,0,6.52,11.89l.25.16Z" fill="#ebebeb"/><path d="M100.44,77.33a14.11,14.11,0,0,1-6.52-11.89V10.3a.47.47,0,0,0-.47-.46H39.26a.47.47,0,0,0-.47.46V65.44a12.1,12.1,0,0,0,5.59,10.2l2.9,1.85h53.41Zm-57.17-58a.36.36,0,0,1,.36-.36H68.15a.36.36,0,0,1,.36.36v2a.36.36,0,0,1-.36.36H43.63a.36.36,0,0,1-.36-.36ZM64.69,56.64a.33.33,0,0,1-.33.33H43.6a.33.33,0,0,1-.33-.33V54.56a.33.33,0,0,1,.33-.33H64.36a.33.33,0,0,1,.33.33Zm25.53,0a.33.33,0,0,1-.33.33h-21a.33.33,0,0,1-.33-.33V54.56a.33.33,0,0,1,.33-.33h21a.33.33,0,0,1,.33.33Zm0-9.92a.48.48,0,0,1-.48.49h-46a.49.49,0,0,1-.49-.49V45a.49.49,0,0,1,.49-.49h46a.48.48,0,0,1,.48.49Zm0-7.87a.47.47,0,0,1-.48.48h-46a.48.48,0,0,1-.49-.48V37.08a.48.48,0,0,1,.49-.48h46a.47.47,0,0,1,.48.48Zm0-7.88a.48.48,0,0,1-.48.49h-46a.49.49,0,0,1-.49-.49V29.21a.49.49,0,0,1,.49-.49h46a.48.48,0,0,1,.48.49Z" fill="#fff"/><path d="M90.22,29.21V31a.48.48,0,0,1-.48.49h-46a.49.49,0,0,1-.49-.49V29.21a.49.49,0,0,1,.49-.49h46A.48.48,0,0,1,90.22,29.21Z" fill="#ebebeb"/><path d="M90.22,37.08v1.77a.47.47,0,0,1-.48.48h-46a.48.48,0,0,1-.49-.48V37.08a.48.48,0,0,1,.49-.48h46A.47.47,0,0,1,90.22,37.08Z" fill="#ebebeb"/><path d="M90.22,45v1.76a.48.48,0,0,1-.48.49h-46a.49.49,0,0,1-.49-.49V45a.49.49,0,0,1,.49-.49h46A.48.48,0,0,1,90.22,45Z" fill="#ebebeb"/><rect x="43.27" y="18.96" width="25.24" height="2.74" rx="0.36" fill="#3eba8f"/><rect x="43.27" y="54.23" width="21.42" height="2.74" rx="0.33" fill="#5b5b5c"/><path d="M90.22,54.56v2.08a.33.33,0,0,1-.33.33h-21a.33.33,0,0,1-.33-.33V54.56a.33.33,0,0,1,.33-.33h21A.33.33,0,0,1,90.22,54.56Z" fill="#5b5b5c"/></svg>