<svg xmlns="http://www.w3.org/2000/svg" width="141.91" height="87.33" viewBox="0 0 141.91 87.33"><title>icons</title><path d="M121.54,24,93.6,35.47a.56.56,0,0,0-.12,0L70.23,32.34V27.45l.57-.11c.22.27.45.54.66.82h0a3.43,3.43,0,0,0,1.89,1.26,3.33,3.33,0,0,0,.88.12A3.49,3.49,0,0,0,77.62,27c.09-.32.17-.66.25-1l.62-.12-.44-.57c.34-1.33.66-2.67.94-4,.16-.76.3-1.53.44-2.31Z" fill="#f7f7f7"/><path d="M70.38,26.85l-.15.52v-.69Z" fill="#f7f7f7"/><path d="M68.23,24.65v7.43L49.85,29.64l-8.32-1.11,20.9-8.12h0a36.26,36.26,0,0,1,5,3.49C67.69,24.15,68,24.4,68.23,24.65Z" fill="#f7f7f7"/><path d="M141.58,37.4,126,23.14a1,1,0,0,0-.83-.74L79.73,16.94c-.09.67-.18,1.33-.3,2L121.54,24,93.6,35.47a.56.56,0,0,0-.12,0L70.23,32.34V27.45h0l0-.09v-.69c-.63-.71-1.3-1.38-2-2v7.43L49.85,29.64l-8.32-1.11,20.9-8.12a2.75,2.75,0,0,1-1.24-1.67l-24,9.34h0a1.35,1.35,0,0,0-.26.15l0,.05a1.49,1.49,0,0,0-.12.14L25.55,44.16a1,1,0,0,0-.11,1,1,1,0,0,0,.77.6l10.33,1.55v5.89L12.86,48.79a1,1,0,1,0-.36,2l24,4.45v6.36L17.85,58.22a1,1,0,1,0-.36,2L36.54,63.6V70L1.17,63.84a1,1,0,1,0-.34,2L36.54,72v5.79a1,1,0,0,0,.85,1L93.2,87.33h0a1.16,1.16,0,0,0,.37,0l.07,0,.09,0,31.69-13.89a1,1,0,0,0,.6-.92V45.85l15.27-6.8a1,1,0,0,0,.58-.75A1,1,0,0,0,141.58,37.4ZM28.12,44,38,30.08,69.1,34.21l22.42,3L80.8,51.89,37.69,45.43ZM92.35,85.17,38.54,76.92V47.58L81.1,54a1,1,0,0,0,1-.4L92.35,39.45ZM124,71.8l-29.69,13V39.21L108.5,53a1,1,0,0,0,1.11.19L124,46.74Zm.59-27.51-15.22,6.77L95,37.05l29.83-12.26L139.1,37.85Z" fill="#ebebeb"/><polygon points="139.1 37.85 124.63 44.29 109.41 51.06 95 37.05 124.83 24.79 139.1 37.85" fill="#fff"/><path d="M82.06,53.56a1,1,0,0,1-1,.4L38.54,47.58V76.92l53.81,8.25V39.45Zm6.69,26.13a.36.36,0,0,1-.36.36L64.25,76.5a.36.36,0,0,1-.36-.36v-2a.36.36,0,0,1,.36-.36l24.14,3.55a.36.36,0,0,1,.36.36Zm0-5.15a.36.36,0,0,1-.36.36L64.25,71.34a.36.36,0,0,1-.36-.35V69a.36.36,0,0,1,.36-.35l24.14,3.55a.36.36,0,0,1,.36.36Zm0-5.15a.36.36,0,0,1-.36.36L64.25,66.19a.36.36,0,0,1-.36-.36v-2a.36.36,0,0,1,.36-.36L88.39,67a.36.36,0,0,1,.36.36Z" fill="#fff"/><path d="M124,46.74V71.8l-29.69,13V39.21L108.5,53a1,1,0,0,0,1.11.19Z" fill="#fff"/><polygon points="91.52 37.19 80.8 51.89 37.69 45.43 28.12 43.99 38.01 30.08 69.1 34.21 91.52 37.19" fill="#fff"/><path d="M88.75,77.67v2a.36.36,0,0,1-.36.36L64.25,76.5a.36.36,0,0,1-.36-.36v-2a.36.36,0,0,1,.36-.36l24.14,3.55A.36.36,0,0,1,88.75,77.67Z" fill="#3eba8f"/><path d="M88.75,72.52v2a.36.36,0,0,1-.36.36L64.25,71.34a.36.36,0,0,1-.36-.35V69a.36.36,0,0,1,.36-.35l24.14,3.55A.36.36,0,0,1,88.75,72.52Z" fill="#5b5b5c"/><path d="M88.75,67.37v2a.36.36,0,0,1-.36.36L64.25,66.19a.36.36,0,0,1-.36-.36v-2a.36.36,0,0,1,.36-.36L88.39,67A.36.36,0,0,1,88.75,67.37Z" fill="#ebebeb"/><polygon points="63.08 2.63 63.09 2.64 63.09 2.64 63.08 2.63" fill="#fff"/><polygon points="50.98 0 50.98 0 50.99 0 50.98 0" fill="#fff"/><polygon points="61.49 16.62 61.49 16.62 61.49 16.62 61.49 16.62" fill="#fff"/><path d="M78.46,15.18a54.69,54.69,0,0,1-.94,5.75c-.38,1.9-.86,3.77-1.35,5.64A2,2,0,0,1,73.75,28a2,2,0,0,1-1.09-.73,28.72,28.72,0,0,0-4.27-4.48,36.91,36.91,0,0,0-5.18-3.65,1.27,1.27,0,0,1,1-2.32,20,20,0,0,1,6.27,2.91c-.21-.56-.42-1.11-.66-1.64a23.76,23.76,0,0,0-2.46-4A19.18,19.18,0,0,0,60.22,8.3a16.3,16.3,0,0,0-8.71-1.44A19.55,19.55,0,0,0,43.14,10,3,3,0,0,1,39,9.1a2.89,2.89,0,0,1-.27-2.66,4,4,0,0,1,2.08-2A25.6,25.6,0,0,1,47.57,2a23.14,23.14,0,0,1,3.51-.48A21.35,21.35,0,0,1,62.38,4a23.72,23.72,0,0,1,8.43,7.56,27.56,27.56,0,0,1,2.67,4.92q.51,1.28.9,2.58c.54-1.51,1.11-3,1.79-4.48a1.2,1.2,0,0,1,2.29.63Z" fill="#48bc95"/></svg>