<?xml version="1.0" encoding="utf-8"?>
<!-- Generator: Adobe Illustrator 23.1.0, SVG Export Plug-In . SVG Version: 6.00 Build 0)  -->
<!DOCTYPE svg PUBLIC "-//W3C//DTD SVG 1.1//EN" "http://www.w3.org/Graphics/SVG/1.1/DTD/svg11.dtd" [
	<!ENTITY ns_extend "http://ns.adobe.com/Extensibility/1.0/">
	<!ENTITY ns_ai "http://ns.adobe.com/AdobeIllustrator/10.0/">
	<!ENTITY ns_graphs "http://ns.adobe.com/Graphs/1.0/">
	<!ENTITY ns_vars "http://ns.adobe.com/Variables/1.0/">
	<!ENTITY ns_imrep "http://ns.adobe.com/ImageReplacement/1.0/">
	<!ENTITY ns_sfw "http://ns.adobe.com/SaveForWeb/1.0/">
	<!ENTITY ns_custom "http://ns.adobe.com/GenericCustomNamespace/1.0/">
	<!ENTITY ns_adobe_xpath "http://ns.adobe.com/XPath/1.0/">
]>
<svg version="1.1" xmlns:x="&ns_extend;" xmlns:i="&ns_ai;" xmlns:graph="&ns_graphs;"
	 xmlns="http://www.w3.org/2000/svg" xmlns:xlink="http://www.w3.org/1999/xlink" x="0px" y="0px" viewBox="0 0 141.2 44.4"
	 style="enable-background:new 0 0 141.2 44.4;" xml:space="preserve">
<style type="text/css">
	.st0{fill:none;}
	.st1{fill:#4F59A7;}
	.st2{fill:#EEEEEE;}
	.st3{fill:#FFFFFF;}
	.st4{fill:#48BC95;}
	.st5{fill:#A0D6C0;}
</style>
<metadata>
	<sfw  xmlns="&ns_sfw;">
		<slices></slices>
		<sliceSourceBounds  bottomLeftOrigin="true" height="48" width="294.7" x="180.6" y="-267.2"></sliceSourceBounds>
	</sfw>
</metadata>
<g id="Layer_1">
</g>
<g id="Layer_2">
	<g>
		<path style="fill:none;" d="M19.3,34.2v-0.5h-2.8v0.6c0.1-0.1,0.3-0.1,0.4-0.1H19.3z"/>
		<path style="fill:none;" d="M97.4,34.2v-0.5h-2.7v0.6c0.1-0.1,0.3-0.1,0.4-0.1H97.4z"/>
		<path style="fill:none;" d="M9.1,7.6V7.1H6.4v0.6c0.1-0.1,0.3-0.1,0.4-0.1H9.1z"/>
		<path style="fill:#4F59A7;" d="M58.1,11.5V6.2c0-0.9-0.4-1.7-1.1-2.2c-0.7-0.5-1.5-0.8-2.4-0.8c-1,0-1.8,0.2-2.6,0.5
			c-0.6-0.4-1.3-0.5-2.1-0.5c-1.2,0-2.3,0.3-3.2,0.7l-0.1-0.2c-0.2-0.2-0.5-0.4-0.8-0.4h-1.7c-0.3,0-0.5,0.1-0.7,0.3
			c-0.1,0.1-0.2,0.2-0.2,0.3c0,0,0,0-0.1-0.1c-0.5-0.3-1-0.5-1.7-0.6c-0.7-0.1-1.4-0.2-2.3-0.2c-1.6,0-2.7,0.1-3.6,0.5
			c-0.1,0.1-0.2,0.1-0.3,0.2c-0.1-0.1-0.1-0.2-0.2-0.2c-0.2-0.2-0.4-0.3-0.7-0.3h-0.5V2.4c0-0.3-0.1-0.5-0.3-0.7
			c-0.2-0.2-0.4-0.3-0.7-0.3h-1.6c-0.3,0-0.5,0.1-0.7,0.3l-1.7,1.7h-0.2c-0.3,0-0.5,0.1-0.7,0.3c0,0-0.1,0.1-0.1,0.1c0,0,0,0,0,0
			c-0.5-0.3-1-0.4-1.6-0.5c-0.6-0.1-1.3-0.1-2.2-0.1c-1.6,0-2.7,0.1-3.6,0.5c-0.2,0.1-0.3,0.2-0.5,0.3c0-0.1-0.1-0.3-0.2-0.4
			c-0.2-0.2-0.4-0.3-0.7-0.3h-3.6c-0.2,0-0.4,0.1-0.5,0.2c-0.2-0.1-0.4-0.2-0.5-0.2h-3.3V2.8c0-0.5-0.1-0.9-0.4-1.4
			c-0.2-0.3-0.5-0.6-0.8-0.8c-0.5-0.3-1-0.4-1.6-0.5C7.7,0,7,0,6.1,0C4.5,0,3.3,0.1,2.4,0.5C1.9,0.7,1.5,1,1.2,1.5c0,0,0,0,0,0
			C0.9,1.7,0.7,1.9,0.5,2.2c-0.3,0.4-0.4,1-0.4,1.4v8.1c0,0.5,0.1,1,0.4,1.4C0.7,13.5,1,13.8,1.3,14c0.5,0.3,1.1,0.5,1.7,0.6
			c0.7,0.1,1.4,0.1,2.4,0.1c1.5,0,2.6-0.1,3.5-0.5c0.3-0.2,0.6-0.4,0.9-0.7c0.1,0.1,0.3,0.3,0.4,0.4c0.7,0.5,1.5,0.8,2.4,0.8
			c1.2,0,2.2-0.3,3.2-0.7l0.1,0.2c0.2,0.3,0.5,0.4,0.8,0.4h1.8c0.3,0,0.6-0.1,0.8-0.4c0.1-0.1,0.1-0.2,0.1-0.2
			c0.4,0.2,0.8,0.4,1.3,0.5c0.8,0.2,1.7,0.3,2.7,0.3c1.6,0,2.7-0.1,3.6-0.5c0.5-0.2,0.9-0.5,1.1-1c0,0,0,0,0,0
			c0.4,0.5,1,0.9,1.6,1.1c0.8,0.3,1.6,0.4,2.6,0.4c0.5,0,1,0,1.5-0.2c0.3-0.1,0.5-0.3,0.6-0.5c0.5,0.3,1.1,0.5,1.7,0.6
			c0.7,0.1,1.4,0.1,2.3,0.1c1.6,0,2.7-0.1,3.6-0.5c0.1-0.1,0.3-0.2,0.4-0.3c0,0.1,0.1,0.2,0.2,0.3c0.2,0.2,0.4,0.3,0.7,0.3H47
			c0.2,0,0.4-0.1,0.5-0.2c0.2,0.1,0.3,0.2,0.5,0.2h3.6c0.3,0,0.5-0.1,0.7-0.3c0,0,0,0,0-0.1c0.3,0.3,0.7,0.4,1,0.4h3.1
			c0.3,0,0.6-0.1,0.8-0.4c0.1-0.1,0.2-0.3,0.2-0.4c0.2,0,0.4-0.1,0.5-0.3c0.2-0.2,0.3-0.5,0.2-0.8C58.1,12.4,58.1,12,58.1,11.5z
			 M10.1,5.4H6.9V3.7c0-0.5-0.3-0.8-0.7-0.8c-0.5,0-0.7,0.3-0.7,0.8v6.5c0,0.5,0.3,0.8,0.7,0.8c0.5,0,0.7-0.3,0.7-0.8V8.6h3.2v2.6
			c0,1.3-1.1,1.8-4,1.8C3,13,1.8,12.5,1.8,11V2.9c0-1.4,1.2-2,4.3-2c2.9,0,4,0.5,4,1.8V5.4z M9.1,7.1v0.5H6.9c-0.2,0-0.3,0-0.4,0.1
			V7.1H9.1z M17.4,12.8L16.8,12c-0.9,0.6-2.1,1-3.4,1c-1.5,0-2.5-0.8-2.5-1.9V4.4h3.6v5.4c0,0.5,0.2,0.8,0.6,0.8
			c0.2,0,0.3-0.1,0.5-0.2v-6h3.6v7.1c0,0.5,0,1,0.1,1.3H17.4z M28.2,11c0,1.4-1.1,1.9-4.1,1.9c-2.7,0-4.1-0.6-4.1-1.6v-1.3h2.9v0.3
			c0,0.3,0.5,0.7,1.1,0.7c0.8,0,1.1-0.2,1.1-0.7c0-0.6-1.2-0.7-2.4-0.9c-1.2-0.2-2.4-0.6-2.4-1.6V6.2c0-1.4,0.9-2,4-2
			c2.9,0,4,0.4,4,1.6V7h-2.9V6.7c0-0.3-0.5-0.5-1-0.5c-0.7,0-1,0.1-1,0.5c0,0.6,1.3,0.7,2.5,0.8c1.3,0.2,2.5,0.5,2.5,1.6V11z
			 M34.4,6.3h-1.5v3.9c0,0.5,0.3,0.8,0.9,0.8c0.2,0,0.4,0,0.5-0.1v1.9c-0.4,0.1-0.8,0.1-1.3,0.1c-2.5,0-3.8-0.8-3.8-2.3V6.3h-0.6v-2
			h0.6l2-1.9h1.6v1.9h1.5V6.3z M43.3,11c0,1.4-1.1,1.9-4.1,1.9c-3,0-4.1-0.5-4.1-1.9V6.2c0-1.4,1.1-2,4.1-2c3,0,4.1,0.5,4.1,2V11z
			 M54.1,12.8c-0.5,0-0.6-0.6-0.6-2.1V7.5c0-0.5-0.2-0.8-0.6-0.8c-0.2,0-0.3,0.1-0.5,0.2v6h-3.6V7.5c0-0.5-0.2-0.8-0.6-0.8
			c-0.2,0-0.3,0.1-0.5,0.2v6h-3.6V4.4h1.7l0.6,0.9c0.9-0.6,2.1-1,3.4-1c0.8,0,1.5,0.2,2,0.7c0.7-0.4,1.6-0.7,2.7-0.7
			c1.5,0,2.5,0.8,2.5,2v5.3c0,0.5,0,1,0.1,1.3H54.1z"/>
		<path style="fill:#4F59A7;" d="M103.1,11.5V1.1c0-0.3-0.1-0.5-0.3-0.7c-0.2-0.2-0.4-0.3-0.7-0.3h-3.6c-0.3,0-0.5,0.1-0.7,0.3
			c-0.1,0.1-0.2,0.3-0.3,0.5C97.3,1,97.2,1,97,1.2c-0.2,0.2-0.3,0.5-0.3,0.7v1.7c-0.3-0.1-0.6-0.2-0.9-0.2c-0.6-0.1-1.4-0.2-2.3-0.2
			c-1.6,0-2.7,0.1-3.6,0.5c-0.3,0.2-0.6,0.4-0.9,0.7c-0.1-0.2-0.3-0.3-0.4-0.4c-0.7-0.5-1.5-0.8-2.4-0.8c-1.2,0-2.2,0.3-3.2,0.7
			l-0.1-0.2c-0.2-0.2-0.5-0.4-0.8-0.4h-1.7c-0.3,0-0.5,0.1-0.7,0.3c-0.1,0.1-0.2,0.2-0.2,0.3c0,0,0,0-0.1-0.1
			c-0.5-0.3-1-0.5-1.7-0.6c-0.6-0.1-1.4-0.2-2.3-0.2c-1.5,0-2.6,0.1-3.5,0.5c-0.4,0.2-0.8,0.5-1.1,1c-0.3,0.2-0.6,0.5-0.8,0.8
			c-0.3,0.4-0.3,0.9-0.3,1.4v1c0,0.3,0.1,0.5,0.3,0.7c0,0.1,0.1,0.1,0.2,0.1c-0.1,0.1-0.2,0.2-0.3,0.4c-0.1,0.2-0.1,0.3-0.2,0.5
			h-1.3V1.1c0-0.3-0.1-0.5-0.3-0.7c-0.2-0.2-0.4-0.3-0.7-0.3h-3.6c-0.3,0-0.5,0.1-0.7,0.3c-0.1,0.1-0.2,0.3-0.3,0.5
			c-0.2,0-0.3,0.1-0.5,0.2c-0.2,0.2-0.3,0.5-0.3,0.7v11.7c0,0.3,0.1,0.5,0.3,0.7c0.2,0.2,0.4,0.3,0.7,0.3h6.9c0.3,0,0.5-0.1,0.7-0.3
			c0.1-0.1,0.1-0.1,0.1-0.2c0.6,0.5,1.4,0.7,2.3,0.7c1.1,0,2.1-0.2,3-0.6l0.1,0.2c0.2,0.3,0.5,0.4,0.8,0.4l1.6-0.1v2.3
			c0,0.3,0.1,0.5,0.3,0.7c0.2,0.2,0.4,0.3,0.7,0.3h3.6c0.3,0,0.5-0.1,0.7-0.3c0.1-0.1,0.2-0.3,0.3-0.5c0.2,0,0.3-0.1,0.5-0.3
			c0.2-0.2,0.3-0.5,0.3-0.7v-1.4c0.2,0,0.3,0,0.4,0c0.9,0,1.8-0.3,2.4-0.8c0.2-0.1,0.3-0.3,0.4-0.4c0.2,0.2,0.3,0.3,0.5,0.5
			c0.5,0.3,1,0.5,1.7,0.6c0.6,0.1,1.4,0.1,2.3,0.1c1.6,0,2.7-0.1,3.6-0.5c0.2-0.1,0.5-0.2,0.7-0.4c0.1,0.1,0.2,0.3,0.3,0.4
			c0.3,0.3,0.7,0.4,1,0.4h3.1c0.3,0,0.6-0.1,0.8-0.4c0.1-0.1,0.2-0.3,0.2-0.4c0.2,0,0.4-0.1,0.5-0.3c0.2-0.2,0.3-0.5,0.2-0.8
			C103.1,12.4,103.1,12,103.1,11.5z M70.7,12.8h-6.8V1.1h3.6v9.4h3.3V12.8z M77.7,12.9l-0.6-0.8c-0.9,0.5-2,0.9-3.3,0.9
			c-1.5,0-2.5-0.8-2.5-1.9V9.7c0-1.4,1.1-1.9,3.6-1.9C75.7,7.8,76,7.6,76,7c0-0.5-0.2-0.8-0.5-0.8c-0.3,0-0.5,0.3-0.5,0.8v0.2h-3.4
			v-1c0-1.4,1.1-2,4-2c3,0,4.2,0.5,4.2,2V11c0,1.2,0,1.4,0.1,1.7L77.7,12.9z M88.7,11c0,1.1-1,1.9-2.5,1.9c-0.8,0-1.5-0.3-2.2-0.7
			v3.8h-3.6V4.4h1.7l0.6,0.9c0.9-0.6,2.1-1,3.4-1c1.5,0,2.5,0.8,2.5,2V11z M97.7,9.2H93v1c0,0.5,0.2,0.8,0.5,0.8
			c0.3,0,0.5-0.3,0.5-0.8V9.9h3.6V11c0,1.4-1.1,1.9-4.1,1.9c-3,0-4.1-0.5-4.1-1.9V6.2c0-1.4,1.1-2,4.1-2c3,0,4.1,0.5,4.1,2V9.2z
			 M99.1,12.8c-0.5,0-0.6-0.6-0.6-2.1V1.1h3.6v10.4c0,0.5,0,1,0.1,1.3H99.1z"/>
		<path style="fill:#4F59A7;" d="M140.7,7.8c0,0-0.1-0.1-0.1-0.1c0,0,0,0,0,0c0.2-0.2,0.3-0.4,0.3-0.7V5.8c0-0.4-0.1-0.9-0.4-1.3
			c-0.2-0.3-0.5-0.5-0.8-0.7c-0.5-0.3-1-0.4-1.6-0.5c-0.6-0.1-1.3-0.1-2.2-0.1c-1.6,0-2.7,0.1-3.6,0.5c-0.3,0.2-0.7,0.4-0.9,0.7
			c-0.2-0.2-0.3-0.4-0.5-0.5c-0.7-0.5-1.5-0.8-2.4-0.8c-1.2,0-2.2,0.3-3.2,0.7l-0.1-0.2c-0.2-0.2-0.5-0.4-0.8-0.4h-1.7
			c0-0.1,0.1-0.2,0.1-0.4V1.1c0-0.3-0.1-0.5-0.3-0.7c-0.2-0.2-0.4-0.3-0.7-0.3h-3.6c-0.3,0-0.5,0.1-0.7,0.3
			c-0.1,0.1-0.2,0.3-0.2,0.5c0,0,0,0-0.1-0.1c-0.5-0.3-1.1-0.5-1.7-0.6c-0.7-0.1-1.4-0.2-2.4-0.2h-4.3c-0.3,0-0.5,0.1-0.7,0.3
			c-0.1,0.1-0.2,0.3-0.3,0.5c-0.2,0-0.4,0.1-0.5,0.2c-0.2,0.2-0.3,0.5-0.3,0.7v11.7c0,0.3,0.1,0.5,0.3,0.7c0.2,0.2,0.4,0.3,0.7,0.3
			h3.6c0.3,0,0.5-0.1,0.7-0.3c0.1-0.1,0.2-0.3,0.3-0.5c0.2,0,0.3-0.1,0.5-0.3c0.2-0.2,0.3-0.5,0.3-0.7V11c1.1,0,2-0.2,2.8-0.5
			c0.1-0.1,0.3-0.1,0.4-0.2v1.2c0,0.8,0,1.4,0.2,1.9c0.1,0.3,0.2,0.6,0.5,0.8c0.3,0.3,0.7,0.4,1,0.4h3.1c0.1,0,0.3,0,0.4-0.1
			c0.1,0.1,0.3,0.1,0.4,0.1h3.6c0.3,0,0.5-0.1,0.7-0.3c0,0,0,0,0-0.1c0.3,0.3,0.7,0.4,1,0.4h3.1c0.3,0,0.6-0.1,0.8-0.4
			c0-0.1,0.1-0.1,0.1-0.2c0.3,0.2,0.7,0.3,1.2,0.4c0.8,0.2,1.7,0.3,2.7,0.3c1.6,0,2.7-0.1,3.6-0.5c0.5-0.2,0.9-0.5,1.1-1
			c0.3-0.2,0.5-0.4,0.7-0.7c0.3-0.4,0.4-0.9,0.4-1.4v-2C141.2,8.6,141,8.2,140.7,7.8z M117.6,7.3c0,1.4-1.2,1.9-4.3,1.9h-0.7v3.6
			h-3.6V1.1h4.3c3.2,0,4.3,0.5,4.3,2V7.3z M118.4,1.1h3.6V3h-3.6V1.1z M119,12.8c-0.5,0-0.6-0.6-0.6-2.1V4.4h3.6v7.1
			c0,0.5,0,1,0.1,1.3H119z M128.2,12.8c-0.5,0-0.6-0.6-0.6-2.1V7.5c0-0.5-0.2-0.8-0.6-0.8c-0.2,0-0.3,0.1-0.5,0.2v6h-3.6V4.4h1.7
			l0.6,0.9c0.9-0.6,2.1-1,3.4-1c1.5,0,2.5,0.8,2.5,2v5.3c0,0.5,0,1,0.1,1.3H128.2z M140.2,11c0,1.4-1.1,1.9-4.2,1.9
			c-2.7,0-4.1-0.6-4.1-1.6v-1.3h2.9v0.3c0,0.3,0.5,0.7,1.1,0.7c0.8,0,1.1-0.2,1.1-0.7c0-0.6-1.2-0.7-2.4-0.9
			c-1.2-0.2-2.4-0.6-2.4-1.6V6.2c0-1.4,0.9-2,4-2c2.9,0,4,0.4,4,1.6V7h-2.9V6.7c0-0.3-0.5-0.5-1-0.5c-0.7,0-1,0.1-1,0.5
			c0,0.6,1.3,0.7,2.5,0.8c1.3,0.2,2.5,0.5,2.5,1.6V11z"/>
		<path style="fill:#4F59A7;" d="M84.5,32.8c0-0.5-0.1-1-0.4-1.4c-0.2-0.3-0.5-0.6-0.8-0.8c-0.5-0.3-1-0.5-1.7-0.6c-0.7-0.1-1.4-0.1-2.3-0.1
			c-1.6,0-2.7,0.1-3.6,0.5c-0.1,0.1-0.3,0.2-0.4,0.3c-0.1-0.1-0.1-0.2-0.2-0.3c-0.2-0.2-0.5-0.3-0.7-0.3h-1.7
			c-0.3,0-0.6,0.1-0.8,0.4l-0.1,0.2c-0.9-0.5-2-0.7-3.2-0.7c-0.9,0-1.8,0.3-2.4,0.8c-0.2,0.1-0.3,0.3-0.5,0.4
			c-0.1-0.1-0.3-0.3-0.5-0.4c-0.7-0.5-1.5-0.8-2.4-0.8c-1.2,0-2.2,0.3-3.2,0.7l-0.1-0.2c-0.2-0.2-0.5-0.4-0.8-0.4h-1.7
			c-0.3,0-0.5,0.1-0.7,0.3c-0.1,0.1-0.2,0.2-0.2,0.3c0,0,0,0-0.1-0.1c-0.5-0.3-1-0.5-1.7-0.6c-0.6-0.1-1.4-0.1-2.3-0.1
			c-1.6,0-2.7,0.1-3.6,0.5c-0.1,0.1-0.2,0.1-0.3,0.2v-2.8c0-0.3-0.1-0.5-0.3-0.7c-0.2-0.2-0.5-0.3-0.7-0.3h-3.6
			c-0.2,0-0.3,0.1-0.5,0.1c-0.1-0.1-0.3-0.1-0.5-0.1h-3.6c-0.3,0-0.5,0.1-0.7,0.3c-0.1,0.1-0.2,0.3-0.3,0.5c-0.2,0-0.3,0.1-0.5,0.2
			c-0.2,0.2-0.3,0.5-0.3,0.7v1.7c-0.3-0.1-0.6-0.2-0.9-0.2c-0.6-0.1-1.4-0.1-2.3-0.1c-1.5,0-2.6,0.1-3.5,0.5
			c-0.4,0.2-0.7,0.4-0.9,0.8c-0.2-0.2-0.3-0.4-0.5-0.5c-0.7-0.5-1.5-0.8-2.4-0.8c-0.4,0-0.8,0.1-1.2,0.2v-2.3c0-0.3-0.1-0.5-0.3-0.7
			c-0.2-0.2-0.4-0.3-0.7-0.3H21c-0.3,0-0.5,0.1-0.7,0.3c-0.1,0.1-0.1,0.2-0.2,0.3c0,0-0.1,0-0.1-0.1c-0.5-0.3-1-0.4-1.6-0.5
			c-0.6-0.1-1.3-0.1-2.2-0.1c-1.6,0-2.8,0.1-3.8,0.5c-0.5,0.2-0.9,0.5-1.2,1c0,0,0,0,0,0c-0.3,0.2-0.5,0.4-0.7,0.7
			c-0.3,0.4-0.4,1-0.4,1.4v8.1c0,0.5,0.1,1,0.4,1.4c0.2,0.3,0.5,0.6,0.8,0.8c0.5,0.3,1.1,0.4,1.7,0.6c0.7,0.1,1.4,0.1,2.4,0.1
			c1.5,0,2.6-0.1,3.5-0.5c0.1-0.1,0.3-0.2,0.4-0.2c0,0.1,0.1,0.2,0.2,0.3c0.2,0.2,0.5,0.3,0.7,0.3h3.6c0.3,0,0.5-0.1,0.7-0.3
			c0,0,0-0.1,0-0.1c0.3,0.3,0.7,0.4,1,0.4h3.1c0.3,0,0.6-0.1,0.8-0.4c0,0,0-0.1,0.1-0.2c0.6,0.4,1.4,0.7,2.3,0.7
			c1.1,0,2.1-0.2,3-0.6l0.1,0.2c0.2,0.3,0.5,0.4,0.8,0.4l2-0.1c0.2,0,0.3-0.1,0.5-0.2c0.3,0.2,0.5,0.3,0.8,0.3h3.1
			c0.2,0,0.5-0.1,0.6-0.3c0.3,0.2,0.6,0.3,0.8,0.3h3.1c0.3,0,0.6-0.1,0.8-0.4c0.1-0.1,0.1-0.1,0.1-0.2c0,0,0,0,0,0
			c0.5,0.3,1,0.5,1.7,0.6c0.6,0.1,1.4,0.1,2.3,0.1c1.6,0,2.7-0.1,3.6-0.5c0.1-0.1,0.3-0.2,0.4-0.3c0.1,0.1,0.1,0.2,0.2,0.3
			c0.2,0.2,0.5,0.3,0.7,0.3H60c0.3,0,0.5-0.1,0.7-0.3c0,0,0-0.1,0-0.1c0.3,0.3,0.7,0.4,1,0.4h3.1c0,0,0,0,0.1,0v0.5
			c0,0.4,0,0.8,0.1,1.1c0.1,0.3,0.2,0.5,0.4,0.8c0.3,0.4,0.7,0.6,1.1,0.7c0.4,0.1,0.8,0.2,1.3,0.2h3.1c0.6,0,1.1-0.1,1.6-0.2
			c0.4-0.1,0.7-0.3,1-0.5c0.2-0.2,0.4-0.4,0.6-0.6c0.1,0,0.1-0.1,0.2-0.1c0.5-0.4,0.8-0.9,1-1.5c0.1-0.2,0.1-0.4,0.1-0.6
			c0.3,0.1,0.7,0.2,1.1,0.3c0.6,0.1,1.4,0.1,2.3,0.1c1.6,0,2.7-0.1,3.6-0.5c0.5-0.2,0.9-0.5,1.1-1c0,0,0,0,0,0
			c0.3-0.2,0.5-0.4,0.7-0.7c0.3-0.4,0.4-0.9,0.4-1.4v-1.1c0-0.1,0-0.2-0.1-0.3c0-0.1,0.1-0.2,0.1-0.3V32.8z M20.2,32H17v-1.6
			c0-0.5-0.3-0.8-0.7-0.8c-0.5,0-0.7,0.3-0.7,0.8v6.5c0,0.5,0.3,0.8,0.7,0.8c0.5,0,0.7-0.3,0.7-0.8v-1.6h3.2v2.6
			c0,1.3-1.1,1.8-4,1.8c-3.2,0-4.3-0.5-4.3-1.9v-8.1c0-1.4,1.2-1.9,4.3-1.9c2.9,0,4,0.5,4,1.8V32z M19.3,33.7v0.5H17
			c-0.1,0-0.3,0-0.4,0.1v-0.6H19.3z M26.3,39.4c-0.5,0-0.6-0.6-0.6-2.1v-3.2c0-0.5-0.2-0.8-0.6-0.8c-0.2,0-0.3,0.1-0.5,0.2v6H21
			V27.8h3.6v3.8c0.6-0.5,1.4-0.7,2.2-0.7c1.5,0,2.5,0.8,2.5,2v5.3c0,0.5,0,1,0.1,1.3H26.3z M36.4,39.5l-0.7-0.8
			c-0.9,0.6-2,0.9-3.2,0.9c-1.5,0-2.5-0.8-2.5-1.9v-1.3c0-1.4,1.1-1.9,3.6-1.9c0.8,0,1.1-0.2,1.1-0.8c0-0.5-0.2-0.8-0.5-0.8
			c-0.3,0-0.5,0.3-0.5,0.8v0.2h-3.4v-1c0-1.4,1.1-2,4-2c3,0,4.1,0.5,4.1,2v4.9c0,1.2,0,1.4,0.1,1.7L36.4,39.5z M39.8,39.4
			c-0.5,0-0.6-0.6-0.6-2.1v-9.6h3.6v10.4c0,0.5,0,1,0.1,1.3H39.8z M44.3,39.4c-0.5,0-0.6-0.6-0.6-2.1v-9.6h3.6v10.4
			c0,0.5,0,1,0.1,1.3H44.3z M56.3,35.9h-4.7v1c0,0.5,0.2,0.8,0.5,0.8c0.3,0,0.5-0.3,0.5-0.8v-0.3h3.6v1.1c0,1.4-1.1,1.9-4.1,1.9
			c-3,0-4.1-0.5-4.1-1.9v-4.9c0-1.4,1.1-2,4.1-2c3,0,4.1,0.5,4.1,2V35.9z M62.4,39.4c-0.5,0-0.6-0.6-0.6-2.1v-3.2
			c0-0.5-0.2-0.8-0.6-0.8c-0.2,0-0.3,0.1-0.5,0.2v6h-3.6V31h1.7l0.7,0.8c0.9-0.6,2-1,3.4-1c1.5,0,2.5,0.8,2.5,2v5.3
			c0,0.5,0,1,0.1,1.3H62.4z M74.4,39.6c0,2.3-0.8,3.1-2.9,3.1h-3.1c-1.4,0-1.9-0.5-1.9-1.8v-1h2.5v0.3c0,0.3,0.3,0.5,0.7,0.5h0.1
			c0.6,0,0.9-0.2,0.9-0.7v-1.5c-0.6,0.5-1.4,0.7-2.2,0.7c-1.5,0-2.5-0.8-2.5-2v-4.5c0-1.1,1-2,2.5-2c1.4,0,2.5,0.4,3.4,1l0.7-0.8
			h1.7V39.6z M83.5,35.9h-4.7v1c0,0.5,0.2,0.8,0.5,0.8c0.3,0,0.5-0.3,0.5-0.8v-0.3h3.6v1.1c0,1.4-1.1,1.9-4.1,1.9
			c-3,0-4.1-0.5-4.1-1.9v-4.9c0-1.4,1.1-2,4.1-2c3,0,4.1,0.5,4.1,2V35.9z"/>
		<path style="fill:#4F59A7;" d="M130.6,34.4c0,0-0.1-0.1-0.1-0.1c0,0,0,0,0,0c0.2-0.2,0.3-0.4,0.3-0.7v-1.1c0-0.4-0.1-0.9-0.4-1.3
			c-0.2-0.3-0.5-0.5-0.8-0.7c-0.5-0.3-1-0.4-1.6-0.5c-0.6-0.1-1.3-0.1-2.2-0.1c-1.6,0-2.7,0.1-3.6,0.5c-0.3,0.2-0.7,0.4-0.9,0.7
			c-0.1-0.2-0.3-0.4-0.5-0.5c-0.7-0.5-1.5-0.8-2.4-0.8c-1.2,0-2.2,0.3-3.2,0.7l-0.1-0.2c-0.2-0.2-0.5-0.4-0.8-0.4h-1.7
			c0-0.1,0.1-0.3,0.1-0.4v-1.9c0-0.3-0.1-0.5-0.3-0.7c-0.2-0.2-0.5-0.3-0.7-0.3h-3.6c-0.3,0-0.5,0.1-0.7,0.3
			c-0.1,0.1-0.2,0.3-0.3,0.5c-0.2,0-0.3,0.1-0.5,0.2c-0.2,0.2-0.3,0.5-0.3,0.7v1.7c-0.3-0.1-0.6-0.2-0.9-0.2
			c-0.7-0.1-1.4-0.1-2.3-0.1c-1.6,0-2.7,0.1-3.6,0.5c-0.1,0-0.1,0.1-0.2,0.1v-1.1c0-0.5-0.1-0.9-0.4-1.4c-0.2-0.3-0.5-0.6-0.8-0.8
			c-0.5-0.3-1-0.4-1.6-0.5c-0.6-0.1-1.3-0.1-2.2-0.1c-1.6,0-2.8,0.1-3.8,0.5c-0.5,0.2-0.9,0.5-1.2,1c0,0,0,0,0,0
			c-0.3,0.2-0.5,0.4-0.7,0.7c-0.3,0.4-0.4,1-0.4,1.4v8.1c0,0.5,0.1,1,0.4,1.4c0.2,0.3,0.5,0.6,0.8,0.8c0.5,0.3,1.1,0.4,1.7,0.6
			c0.7,0.1,1.4,0.1,2.4,0.1c1.5,0,2.6-0.1,3.5-0.5c0.3-0.1,0.6-0.4,0.9-0.6c0.2,0.2,0.3,0.3,0.5,0.4c0.5,0.3,1,0.5,1.7,0.6
			c0.6,0.1,1.4,0.1,2.3,0.1c1.6,0,2.7-0.1,3.6-0.5c0.2-0.1,0.5-0.2,0.6-0.4c0.1,0.1,0.2,0.3,0.3,0.4c0.3,0.3,0.7,0.4,1,0.4h3.1
			c0.1,0,0.3,0,0.4-0.1c0.1,0.1,0.3,0.1,0.4,0.1h3.6c0.3,0,0.5-0.1,0.7-0.3c0,0,0-0.1,0-0.1c0.3,0.3,0.7,0.4,1,0.4h3.1
			c0.3,0,0.6-0.1,0.8-0.4c0,0,0.1-0.1,0.1-0.2c0.3,0.2,0.7,0.3,1.2,0.5c0.8,0.2,1.7,0.3,2.7,0.3c1.6,0,2.7-0.1,3.6-0.5
			c0.5-0.2,0.9-0.5,1.1-1c0,0,0,0,0,0c0.3-0.2,0.5-0.4,0.7-0.7c0.3-0.4,0.4-0.9,0.4-1.4v-2C131,35.2,130.9,34.8,130.6,34.4z
			 M98.4,32h-3.2v-1.6c0-0.5-0.3-0.8-0.7-0.8c-0.5,0-0.7,0.3-0.7,0.8v6.5c0,0.5,0.3,0.8,0.7,0.8c0.5,0,0.7-0.3,0.7-0.8v-1.6h3.2v2.6
			c0,1.3-1.1,1.8-4,1.8c-3.1,0-4.3-0.5-4.3-1.9v-8.1c0-1.4,1.2-1.9,4.3-1.9c2.9,0,4,0.5,4,1.8V32z M97.4,33.7v0.5h-2.2
			c-0.2,0-0.3,0-0.4,0.1v-0.6H97.4z M107.4,37.6c0,1.4-1.1,1.9-4.1,1.9c-3,0-4.1-0.5-4.1-1.9v-4.9c0-1.4,1.1-2,4.1-2
			c3,0,4.1,0.5,4.1,2V37.6z M108.2,27.8h3.6v1.9h-3.6V27.8z M108.9,39.4c-0.5,0-0.6-0.6-0.6-2.1V31h3.6v7.1c0,0.5,0,1,0.1,1.3H108.9
			z M118.1,39.4c-0.5,0-0.6-0.6-0.6-2.1v-3.2c0-0.5-0.2-0.8-0.6-0.8c-0.2,0-0.3,0.1-0.5,0.2v6h-3.6V31h1.7l0.7,0.8
			c0.9-0.6,2-1,3.4-1c1.5,0,2.5,0.8,2.5,2v5.3c0,0.5,0,1,0.1,1.3H118.1z M130,37.6c0,1.4-1.1,1.9-4.1,1.9c-2.7,0-4.1-0.6-4.1-1.6
			v-1.3h2.9V37c0,0.3,0.5,0.6,1.1,0.6c0.8,0,1.1-0.2,1.1-0.6c0-0.6-1.2-0.7-2.4-0.9c-1.2-0.2-2.4-0.6-2.4-1.6v-1.7c0-1.4,0.9-2,4-2
			c2.9,0,4,0.4,4,1.6v1.1H127v-0.3c0-0.3-0.5-0.5-1-0.5c-0.7,0-1,0.1-1,0.5c0,0.6,1.3,0.7,2.5,0.9c1.3,0.2,2.5,0.5,2.5,1.6V37.6z"/>
		<path style="fill:#4F59A7;" d="M38.6,7v3.2c0,0.5,0.2,0.8,0.5,0.8s0.5-0.3,0.5-0.8V7c0-0.5-0.2-0.8-0.5-0.8S38.6,6.5,38.6,7z"/>
		<path style="fill:#4F59A7;" d="M74.7,10.1c0,0.5,0.2,0.7,0.8,0.7c0.1,0,0.3,0,0.5-0.1V9.2C75.6,9.4,74.7,9.3,74.7,10.1z"/>
		<path style="fill:#4F59A7;" d="M85.1,7.5c0-0.5-0.2-0.8-0.6-0.8c-0.2,0-0.3,0.1-0.5,0.2v3.6c0.2,0.1,0.3,0.2,0.5,0.2c0.3,0,0.6-0.3,0.6-0.8
			V7.5z"/>
		<path style="fill:#4F59A7;" d="M93,7v0.6h0.4H94h0.4V7c0-0.5-0.3-0.8-0.7-0.8C93.2,6.2,93,6.5,93,7z"/>
		<path style="fill:#4F59A7;" d="M113.2,3.1h-0.7v1v2.2v1h0.7c0.5,0,0.7-0.3,0.7-0.8V3.9C114,3.4,113.7,3.1,113.2,3.1z"/>
		<path style="fill:#4F59A7;" d="M33.5,36.7c0,0.5,0.2,0.7,0.8,0.7c0.1,0,0.3,0,0.5-0.1v-1.5C34.3,36,33.5,35.9,33.5,36.7z"/>
		<path style="fill:#4F59A7;" d="M51.6,33.6v0.6h0.4h0.6h0.4v-0.6c0-0.5-0.3-0.8-0.7-0.8C51.9,32.8,51.6,33.1,51.6,33.6z"/>
		<path style="fill:#4F59A7;" d="M70.3,33.3c-0.3,0-0.6,0.3-0.6,0.8V36c0,0.5,0.2,0.8,0.6,0.8c0.2,0,0.3-0.1,0.5-0.2v-3.2
			C70.6,33.3,70.5,33.3,70.3,33.3z"/>
		<path style="fill:#4F59A7;" d="M78.8,33.6v0.6h0.4h0.6h0.4v-0.6c0-0.5-0.3-0.8-0.7-0.8C79.1,32.8,78.8,33.1,78.8,33.6z"/>
		<path style="fill:#4F59A7;" d="M103.8,33.6c0-0.5-0.2-0.8-0.5-0.8c-0.3,0-0.5,0.3-0.5,0.8v3.2c0,0.5,0.2,0.8,0.5,0.8c0.3,0,0.5-0.3,0.5-0.8
			V33.6z"/>
		<path style="fill:#EEEEEE;" d="M6.1,1C3,1,1.8,1.5,1.8,2.9V11C1.8,12.5,3,13,6.1,13c2.9,0,4-0.5,4-1.8V8.6H6.9v1.6c0,0.5-0.3,0.8-0.7,0.8
			c-0.5,0-0.7-0.3-0.7-0.8V3.7c0-0.5,0.3-0.8,0.7-0.8c0.5,0,0.7,0.3,0.7,0.8v0.6v1h1h2.2V2.8C10.1,1.5,9,1,6.1,1z"/>
		<path style="fill:#EEEEEE;" d="M15.5,4.4v6c-0.2,0.1-0.3,0.2-0.5,0.2c-0.3,0-0.6-0.3-0.6-0.8V5.4v-1h-1h-2.6V11c0,1.1,1,1.9,2.5,1.9
			c1.4,0,2.5-0.4,3.4-1l0.6,0.8h1.8c-0.1-0.3-0.1-0.8-0.1-1.3V4.4H15.5z"/>
		<path style="fill:#EEEEEE;" d="M20.1,6.2v1.7c0,1.1,1.2,1.4,2.4,1.6c1.2,0.2,2.4,0.3,2.4,0.9c0,0.5-0.3,0.6-1.1,0.6c-0.6,0-1.1-0.3-1.1-0.6
			v-0.3h-1h-1.9v1.3c0,1.1,1.4,1.6,4.1,1.6c3,0,4.1-0.5,4.1-1.9V9.1c0-1.1-1.3-1.4-2.5-1.6c-1.3-0.2-2.5-0.3-2.5-0.9
			c0-0.4,0.3-0.5,1-0.5c0.5,0,1,0.2,1,0.5V7h1H28V5.9c0-1.2-1.1-1.6-4-1.6C21,4.2,20.1,4.7,20.1,6.2z"/>
		<path style="fill:#EEEEEE;" d="M31.3,2.4l-2,1.9h-0.6v0.9v0.1v0.9h0.6v1v3.4c0,1.5,1.3,2.3,3.8,2.3c0.5,0,0.9,0,1.3-0.1v-1.9
			C34.1,11,34,11,33.8,11c-0.6,0-0.9-0.3-0.9-0.8V6.3h0.5h1v-1V4.4h-1.5V2.4H31.3z"/>
		<path style="fill:#EEEEEE;" d="M39.2,4.2c-3,0-4.1,0.5-4.1,2V11c0,1.4,1.1,1.9,4.1,1.9c3,0,4.1-0.5,4.1-1.9V6.2C43.3,4.7,42.2,4.2,39.2,4.2z
			 M39.7,10.2c0,0.5-0.2,0.8-0.5,0.8c-0.3,0-0.5-0.3-0.5-0.8V7c0-0.5,0.2-0.8,0.5-0.8c0.3,0,0.5,0.3,0.5,0.8V10.2z"/>
		<path style="fill:#EEEEEE;" d="M44.1,4.4v8.4h3.6v-6c0.2-0.1,0.3-0.2,0.5-0.2c0.4,0,0.6,0.3,0.6,0.8v5.3h3.6v-6c0.2-0.1,0.3-0.2,0.5-0.2
			c0.4,0,0.6,0.3,0.6,0.8v3.2c0,1.5,0.1,2.1,0.6,2.1h3.1c-0.1-0.3-0.1-0.8-0.1-1.3V6.2c0-1.1-1-1.9-2.5-1.9c-1.1,0-2,0.2-2.7,0.7
			c-0.5-0.4-1.1-0.7-2-0.7c-1.4,0-2.5,0.4-3.4,1l-0.6-0.8H44.1z"/>
		<polygon style="fill:#EEEEEE;" points="66.4,1.2 63.8,1.2 63.8,12.8 70.7,12.8 70.7,10.6 67.4,10.6 67.4,2.2 67.4,1.2 		"/>
		<path style="fill:#EEEEEE;" d="M79.6,11V6.2c0-1.4-1.1-2-4.2-2c-2.9,0-4,0.5-4,2v1h3.4V7c0-0.5,0.2-0.8,0.5-0.8C75.8,6.2,76,6.5,76,7
			c0,0.6-0.3,0.8-1.1,0.8c-2.5,0-3.6,0.5-3.6,1.9V11c0,1.1,1,1.9,2.5,1.9c1.3,0,2.4-0.3,3.3-0.9l0.6,0.8l2-0.1
			C79.6,12.4,79.6,12.3,79.6,11z M76,10.7c-0.2,0.1-0.3,0.1-0.4,0.1c-0.6,0-0.8-0.3-0.8-0.7c0-0.9,0.9-0.7,1.3-0.9V10.7z"/>
		<path style="fill:#EEEEEE;" d="M86.1,4.2c-1.4,0-2.5,0.4-3.4,1l-0.6-0.9h-1.7v11.7H84v-3.8c0.7,0.5,1.4,0.7,2.2,0.7c1.5,0,2.5-0.8,2.5-1.9
			V6.2C88.7,5,87.6,4.2,86.1,4.2z M85.1,9.7c0,0.5-0.2,0.8-0.6,0.8c-0.2,0-0.3-0.1-0.5-0.2V6.8c0.2-0.1,0.4-0.2,0.5-0.2
			c0.3,0,0.6,0.3,0.6,0.8V9.7z"/>
		<path style="fill:#EEEEEE;" d="M97.7,9.2V6.2c0-1.4-1.1-2-4.1-2c-3,0-4.1,0.5-4.1,2V11c0,1.4,1.1,1.9,4.1,1.9c3,0,4.1-0.5,4.1-1.9V9.9h-3.6
			v0.3c0,0.5-0.2,0.8-0.5,0.8c-0.3,0-0.5-0.3-0.5-0.8v-1H97.7z M93,7c0-0.5,0.3-0.8,0.7-0.8c0.5,0,0.7,0.3,0.7,0.8v0.6H93V7z"/>
		<path style="fill:#EEEEEE;" d="M101.1,1.2h-2.6v9.6c0,1.5,0.1,2.1,0.6,2.1h3.1c-0.1-0.3-0.1-0.8-0.1-1.3V2.2v-1H101.1z"/>
		<path style="fill:#EEEEEE;" d="M113.2,1.1h-4.3v11.7h3.6V9.2h0.7c3.2,0,4.3-0.5,4.3-1.9V3.1C117.6,1.7,116.4,1.1,113.2,1.1z M114,6.5
			c0,0.5-0.3,0.8-0.7,0.8h-0.7V3.1h0.7c0.5,0,0.7,0.3,0.7,0.8V6.5z"/>
		<polygon style="fill:#EEEEEE;" points="119.4,1.2 118.4,1.2 118.4,2.2 118.4,3 121,3 122,3 122,2 122,1.2 		"/>
		<path style="fill:#EEEEEE;" d="M122.1,12.8c-0.1-0.3-0.1-0.8-0.1-1.3V5.4v-1h-1h-2.6v6.3c0,1.5,0.1,2.1,0.6,2.1H122.1z"/>
		<path style="fill:#EEEEEE;" d="M122.9,4.4v8.4h3.6v-6c0.2-0.1,0.3-0.2,0.5-0.2c0.4,0,0.6,0.3,0.6,0.8v3.2c0,1.5,0.1,2.1,0.6,2.1h3.1
			c-0.1-0.3-0.1-0.8-0.1-1.3V6.2c0-1.1-1-1.9-2.5-1.9c-1.4,0-2.5,0.4-3.4,1l-0.6-0.8H122.9z"/>
		<path style="fill:#EEEEEE;" d="M136,4.2c-3,0-4,0.5-4,1.9v1.7c0,1.1,1.2,1.4,2.4,1.6s2.4,0.3,2.4,0.9c0,0.5-0.3,0.6-1.1,0.6
			c-0.6,0-1.1-0.3-1.1-0.6v-0.3h-1h-1.9v1.3c0,1.1,1.4,1.6,4.1,1.6c3,0,4.1-0.5,4.1-1.9V9.1c0-1.1-1.3-1.4-2.5-1.6
			c-1.3-0.2-2.5-0.3-2.5-0.9c0-0.4,0.3-0.5,1-0.5c0.5,0,1,0.2,1,0.5V7h1h1.9V5.9C140,4.7,138.9,4.2,136,4.2z"/>
		<path style="fill:#EEEEEE;" d="M20.2,37.8v-2.6H17v1.6c0,0.5-0.3,0.8-0.7,0.8c-0.5,0-0.7-0.3-0.7-0.8v-6.5c0-0.5,0.3-0.8,0.7-0.8
			c0.5,0,0.7,0.3,0.7,0.8V31v1h1h2.2v-2.6c0-1.3-1.1-1.8-4-1.8c-3.2,0-4.3,0.5-4.3,1.9v8.1c0,1.4,1.2,1.9,4.3,1.9
			C19.2,39.6,20.2,39.1,20.2,37.8z"/>
		<path style="fill:#EEEEEE;" d="M22,27.8h-1v1v10.7h3.6v-6c0.2-0.1,0.3-0.2,0.5-0.2c0.3,0,0.6,0.3,0.6,0.8v3.2c0,1.5,0.1,2.1,0.6,2.1h3.1
			c-0.1-0.3-0.1-0.8-0.1-1.3v-5.3c0-1.1-1-1.9-2.5-1.9c-0.8,0-1.5,0.3-2.2,0.7v-3.8H22z"/>
		<path style="fill:#EEEEEE;" d="M38.3,37.6v-4.9c0-1.4-1.1-2-4.1-2c-2.9,0-4,0.5-4,2v1h3.4v-0.2c0-0.5,0.2-0.8,0.5-0.8c0.4,0,0.5,0.3,0.5,0.8
			c0,0.6-0.3,0.8-1.1,0.8c-2.5,0-3.6,0.5-3.6,1.9v1.3c0,1.1,1,1.9,2.5,1.9c1.3,0,2.4-0.3,3.2-0.9l0.7,0.8l2-0.1
			C38.4,39,38.3,38.9,38.3,37.6z M34.7,37.3c-0.2,0.1-0.3,0.1-0.5,0.1c-0.7,0-0.8-0.3-0.8-0.7c0-0.9,0.9-0.7,1.3-0.9V37.3z"/>
		<path style="fill:#EEEEEE;" d="M39.1,37.3c0,1.5,0.1,2.1,0.6,2.1h3.1c-0.1-0.3-0.1-0.8-0.1-1.3v-9.4v-1h-1h-2.6V37.3z"/>
		<path style="fill:#EEEEEE;" d="M46.2,27.8h-2.6v9.6c0,1.5,0.1,2.1,0.6,2.1h3.1c-0.1-0.3-0.1-0.8-0.1-1.3v-9.4v-1H46.2z"/>
		<path style="fill:#EEEEEE;" d="M56.3,35.9v-3.1c0-1.4-1.1-2-4.1-2c-3,0-4.1,0.5-4.1,2v4.9c0,1.4,1.1,1.9,4.1,1.9c3,0,4.1-0.5,4.1-1.9v-1.1
			h-3.6v0.3c0,0.5-0.2,0.8-0.5,0.8c-0.3,0-0.5-0.3-0.5-0.8v-1H56.3z M51.6,33.6c0-0.5,0.3-0.8,0.7-0.8c0.5,0,0.7,0.3,0.7,0.8v0.6
			h-1.4V33.6z"/>
		<path style="fill:#EEEEEE;" d="M57.1,31v8.4h3.6v-6c0.2-0.1,0.3-0.2,0.5-0.2c0.4,0,0.6,0.3,0.6,0.8v3.2c0,1.5,0.1,2.1,0.6,2.1h3.1
			c-0.1-0.3-0.1-0.8-0.1-1.3v-5.3c0-1.1-1-1.9-2.5-1.9c-1.4,0-2.5,0.4-3.4,1L58.8,31H57.1z"/>
		<path style="fill:#EEEEEE;" d="M72.7,31l-0.7,0.8c-0.9-0.6-2-1-3.4-1c-1.5,0-2.5,0.8-2.5,2v4.5c0,1.1,1,2,2.5,2c0.8,0,1.5-0.3,2.2-0.7v1.5
			c0,0.5-0.3,0.7-0.9,0.7h-0.1c-0.5,0-0.7-0.2-0.7-0.5v-0.3h-2.5v1c0,1.3,0.5,1.8,1.9,1.8h3.1c2.1,0,2.9-0.8,2.9-3.1V31H72.7z
			 M70.8,36.7c-0.2,0.1-0.3,0.2-0.5,0.2c-0.3,0-0.6-0.3-0.6-0.8v-2c0-0.5,0.2-0.8,0.6-0.8c0.2,0,0.3,0.1,0.5,0.2V36.7z"/>
		<path style="fill:#EEEEEE;" d="M83.5,35.9v-3.1c0-1.4-1.1-2-4.1-2c-3,0-4.1,0.5-4.1,2v4.9c0,1.4,1.1,1.9,4.1,1.9c3,0,4.1-0.5,4.1-1.9v-1.1
			h-3.6v0.3c0,0.5-0.2,0.8-0.5,0.8c-0.3,0-0.5-0.3-0.5-0.8v-1H83.5z M78.8,33.6c0-0.5,0.3-0.8,0.7-0.8c0.5,0,0.7,0.3,0.7,0.8v0.6
			h-1.4V33.6z"/>
		<path style="fill:#EEEEEE;" d="M94.5,27.6c-3.2,0-4.3,0.5-4.3,1.9v8.1c0,1.4,1.2,1.9,4.3,1.9c2.9,0,4-0.5,4-1.8v-2.6h-3.2v1.6
			c0,0.5-0.3,0.8-0.7,0.8c-0.5,0-0.7-0.3-0.7-0.8v-6.5c0-0.5,0.3-0.8,0.7-0.8c0.5,0,0.7,0.3,0.7,0.8V31v1h1h2.2v-2.6
			C98.4,28.1,97.4,27.6,94.5,27.6z"/>
		<path style="fill:#EEEEEE;" d="M103.3,30.8c-3,0-4.1,0.5-4.1,2v4.9c0,1.4,1.1,1.9,4.1,1.9c3,0,4.1-0.5,4.1-1.9v-4.9
			C107.4,31.4,106.3,30.8,103.3,30.8z M103.8,36.8c0,0.5-0.2,0.8-0.5,0.8c-0.3,0-0.5-0.3-0.5-0.8v-3.2c0-0.5,0.2-0.8,0.5-0.8
			c0.3,0,0.5,0.3,0.5,0.8V36.8z"/>
		<polygon style="fill:#EEEEEE;" points="109.2,27.8 108.2,27.8 108.2,28.8 108.2,29.6 110.8,29.6 111.8,29.6 111.8,28.6 111.8,27.8 		"/>
		<path style="fill:#EEEEEE;" d="M111.9,39.4c-0.1-0.3-0.1-0.8-0.1-1.3V32v-1h-1h-2.6v6.3c0,1.5,0.1,2.1,0.6,2.1H111.9z"/>
		<path style="fill:#EEEEEE;" d="M112.7,31v8.4h3.6v-6c0.2-0.1,0.3-0.2,0.5-0.2c0.4,0,0.6,0.3,0.6,0.8v3.2c0,1.5,0.1,2.1,0.6,2.1h3.1
			c-0.1-0.3-0.1-0.8-0.1-1.3v-5.3c0-1.1-1-1.9-2.5-1.9c-1.4,0-2.5,0.4-3.4,1l-0.6-0.8H112.7z"/>
		<path style="fill:#EEEEEE;" d="M125.9,30.8c-3,0-4,0.5-4,1.9v1.7c0,1.1,1.2,1.4,2.4,1.6c1.2,0.2,2.4,0.3,2.4,0.9c0,0.5-0.3,0.6-1.1,0.6
			c-0.6,0-1.1-0.3-1.1-0.6v-0.3h-1h-1.9V38c0,1.1,1.4,1.6,4.1,1.6c3,0,4.1-0.5,4.1-1.9v-1.9c0-1.1-1.3-1.4-2.5-1.6
			c-1.3-0.2-2.5-0.3-2.5-0.9c0-0.4,0.3-0.5,1-0.5c0.5,0,1,0.2,1,0.5v0.3h1h1.9v-1.1C129.8,31.3,128.8,30.8,125.9,30.8z"/>
		<path style="fill:#A0D6C0;" d="M111.7,21.8c0,0.6-0.5,1-1,1H76v-2h34.7C111.3,20.8,111.7,21.3,111.7,21.8z"/>
		<path style="fill:#A0D6C0;" d="M66.7,21.2c-0.1,0.1-0.2,0.1-0.2,0.2c-0.4,0.4-0.6,0.9-0.6,1.4H31.3c-0.5,0-1-0.4-1-1c0-0.5,0.5-1,1-1h35.3
			C66.6,20.9,66.7,21.1,66.7,21.2z"/>
		<path style="fill:#FFFFFF;" d="M69.8,23.2v1.1c0,0.4,0.3,0.7,0.6,0.7c0.3,0,0.6-0.3,0.6-0.7v-0.9v-1h-0.7C70,22.4,69.8,22.8,69.8,23.2z"/>
		<path style="fill:#48BC95;" d="M74.7,24.9c-0.5,0-0.7-0.2-0.7-0.7v-1.8H75v-1.6h-1.1v-0.7h-2.5l-0.3,0.7h-0.4c-0.3,0-0.5-0.3-0.5-0.7v-0.7
			c0-0.4,0.2-0.7,0.6-0.7c0.4,0,0.6,0.2,0.6,0.5h2.5v-0.7c0-1-1.2-1.5-3.1-1.5c-2.1,0-3.4,0.6-3.4,1.6V20c0,0.7,0.3,1.2,1.1,1.5
			c-1.2,0.2-1.7,0.9-1.7,1.7v1.7c0,1.2,0.9,1.6,3.4,1.6c0.8,0,1.3-0.1,1.7-0.4c0.5,0.3,1.2,0.4,2.1,0.4c0.4,0,0.7,0,1-0.1v-1.6
			C75,24.8,74.8,24.9,74.7,24.9z M71,24.2c0,0.4-0.3,0.7-0.6,0.7c-0.3,0-0.6-0.3-0.6-0.7v-1.1c0-0.4,0.2-0.8,0.4-0.8H71V24.2z"/>
	</g>
</g>
</svg>
