<svg xmlns="http://www.w3.org/2000/svg" width="141.1" height="44.5" viewBox="0 0 141.1 44.5"><title>Logo-02</title><path d="M19.3,34.2v-.5H16.5v.6a.6.6,0,0,1,.4-.1Z" transform="translate(-0.1 0)" fill="none"/><path d="M97.4,34.2v-.5H94.7v.6a.6.6,0,0,1,.4-.1Z" transform="translate(-0.1 0)" fill="none"/><path d="M9.1,7.6V7.1H6.4v.6a.6.6,0,0,1,.4-.1Z" transform="translate(-0.1 0)" fill="none"/><path d="M58.1,12.7V6.2A2.66,2.66,0,0,0,57,4a4.07,4.07,0,0,0-2.4-.8,7.08,7.08,0,0,0-2.6.5,3.64,3.64,0,0,0-2.1-.5,7.93,7.93,0,0,0-3.2.7l-.1-.2a1.23,1.23,0,0,0-.8-.4H44.1a.91.91,0,0,0-.7.3c-.1.1-.2.2-.2.3l-.1-.1a4.28,4.28,0,0,0-1.7-.6A15.16,15.16,0,0,0,39.1,3a8.88,8.88,0,0,0-3.6.5c-.1.1-.2.1-.3.2-.1-.1-.1-.2-.2-.2a.91.91,0,0,0-.7-.3h-.5V2.4a.91.91,0,0,0-.3-.7.91.91,0,0,0-.7-.3H31.2a.91.91,0,0,0-.7.3L28.8,3.4h-.2a.91.91,0,0,0-.7.3l-.1.1a4.28,4.28,0,0,0-1.6-.5A14.12,14.12,0,0,0,24,3.2a8.88,8.88,0,0,0-3.6.5c-.2.1-.3.2-.5.3a.76.76,0,0,0-.2-.4.91.91,0,0,0-.7-.3H15.4a.76.76,0,0,0-.5.2,1.69,1.69,0,0,0-.5-.2H11.1V2.8a2.5,2.5,0,0,0-.4-1.4A3,3,0,0,0,9.9.6,4.28,4.28,0,0,0,8.3.1,14.12,14.12,0,0,0,6.1,0,9.42,9.42,0,0,0,2.4.5a2.34,2.34,0,0,0-1.2,1,2.34,2.34,0,0,0-.7.7A2.5,2.5,0,0,0,.1,3.6v8.1a2.3,2.3,0,0,0,.4,1.4,2.36,2.36,0,0,0,.8.9,4.92,4.92,0,0,0,1.7.6,17,17,0,0,0,2.4.1,8.65,8.65,0,0,0,3.5-.5,5.5,5.5,0,0,0,.9-.7l.4.4a4.07,4.07,0,0,0,2.4.8,8.33,8.33,0,0,0,3.2-.7l.1.2a.91.91,0,0,0,.8.4h1.8a.91.91,0,0,0,.8-.4.31.31,0,0,0,.1-.2,5,5,0,0,0,1.3.5,11.15,11.15,0,0,0,2.7.3,8.88,8.88,0,0,0,3.6-.5,1.82,1.82,0,0,0,1.1-1,3.55,3.55,0,0,0,1.6,1.1,7.1,7.1,0,0,0,2.6.4,3.89,3.89,0,0,0,1.5-.2,1,1,0,0,0,.6-.5,4.92,4.92,0,0,0,1.7.6,16.22,16.22,0,0,0,2.3.1,8.88,8.88,0,0,0,3.6-.5c.1-.1.3-.2.4-.3,0,.1.1.2.2.3a.91.91,0,0,0,.7.3H47a.76.76,0,0,0,.5-.2c.2.1.3.2.5.2h3.6a.91.91,0,0,0,.7-.3v-.1a1.43,1.43,0,0,0,1,.4h3.1a.91.91,0,0,0,.8-.4.76.76,0,0,0,.2-.4.55.55,0,0,0,.5-.3A.78.78,0,0,0,58.1,12.7Zm-48-7.3H6.9V3.7a1.09,1.09,0,0,0,0-.18.72.72,0,0,0-.55-.61H6.06a.62.62,0,0,0-.55.61,1.09,1.09,0,0,0,0,.18v6.5a1.09,1.09,0,0,0,0,.18.72.72,0,0,0,.55.61h.28a.62.62,0,0,0,.55-.61,1.09,1.09,0,0,0,0-.18V8.6h3.2v2.6c0,1.3-1.1,1.8-4,1.8-3.1,0-4.3-.5-4.3-2V2.9A1.61,1.61,0,0,1,2,2C2.52,1.24,3.78.9,6.1.9c2.8,0,3.92.47,4,1.67a1.69,1.69,0,0,1,0,.23ZM6.66,7.61a.29.29,0,0,0-.16.09V7.1H9.1v.5H6.66ZM17.4,12.8l-.07-.1L16.8,12h0a6.15,6.15,0,0,1-3.38,1,2.76,2.76,0,0,1-2-.73,1.65,1.65,0,0,1-.48-1.17V4.4h3.6V9.8c0,.47.18.76.53.8h.07c.2,0,.3-.1.5-.2v-6h3.6v7.1a4.89,4.89,0,0,0,.1,1.3Zm11-1.8h-.2a1.48,1.48,0,0,1-1,1.5,8.27,8.27,0,0,1-3.12.4c-2.7,0-4.1-.6-4.1-1.6V10h2.9v.3c0,.29.47.67,1,.69H24c.8,0,1.1-.2,1.1-.7s-1.2-.7-2.4-.9-2.4-.6-2.4-1.6V6.2c0-1,.49-1.62,2-1.86a11.5,11.5,0,0,1,2-.14c2.9,0,4,.4,4,1.6V7H25.4V6.7c0-.25-.36-.44-.77-.48a.9.9,0,0,0-.23,0c-.7,0-1,.1-1,.5s.32.48.8.59l.38.07c.41.06.87.1,1.32.14,1.3.2,2.5.5,2.5,1.6Zm4.7,1.9h-.45c-2.27-.07-3.45-.86-3.45-2.29V6.3h-.6v-2h.6l2-1.9h1.6V4.3h1.5v2H32.9v3.9c0,.5.3.8.9.8a1.5,1.5,0,0,0,.41,0l.09-.06v1.9a3.1,3.1,0,0,1-.61.09ZM43.3,11c0,1.4-1.1,1.9-4.1,1.9s-4.1-.5-4.1-1.9V6.2a2.46,2.46,0,0,1,0-.49c.24-1,1.26-1.44,3.51-1.5h.54c3,0,4.1.5,4.1,2Zm10.8,1.9v-.1c-.43,0-.57-.45-.59-1.55,0-.22,0-.47,0-.75v-3c0-.5-.2-.8-.6-.8-.2,0-.3.1-.5.2v6H48.8V7.5c0-.5-.2-.8-.6-.8-.2,0-.3.1-.5.2v6H44.1V4.4h1.7l.07.1.53.8.07,0a6,6,0,0,1,2.43-.89,2.63,2.63,0,0,1,.49,0l.51,0h.2a3.42,3.42,0,0,1,.81.15A2.32,2.32,0,0,1,51.8,5l.06,0a3.56,3.56,0,0,1,.59-.28,1,1,0,0,1,.22-.09,6.55,6.55,0,0,1,1-.24l.17,0c.13,0,.25,0,.39,0h.33c1.48,0,2.47.81,2.47,2v5.3a7.72,7.72,0,0,0,0,1,1.13,1.13,0,0,0,.06.3Z" transform="translate(-0.1 0)" fill="#4f59a7"/><path d="M103.1,1.1a.91.91,0,0,0-.3-.7.91.91,0,0,0-.7-.3H98.5a.91.91,0,0,0-.7.3,2.19,2.19,0,0,0-.3.5,1.33,1.33,0,0,0-.5.3,1.08,1.08,0,0,0-.3.7V3.6a2.92,2.92,0,0,0-.9-.2,14,14,0,0,0-2.3-.2,8.88,8.88,0,0,0-3.6.5,5.5,5.5,0,0,0-.9.7c-.1-.2-.3-.3-.4-.4a4.07,4.07,0,0,0-2.4-.8,8.33,8.33,0,0,0-3.2.7l-.1-.2a1.23,1.23,0,0,0-.8-.4H80.4a.91.91,0,0,0-.7.3c-.1.1-.2.2-.2.3l-.1-.1a4.28,4.28,0,0,0-1.7-.6A14,14,0,0,0,75.4,3a8.65,8.65,0,0,0-3.5.5,2.59,2.59,0,0,0-1.1,1,3,3,0,0,0-.8.8,2.23,2.23,0,0,0-.3,1.4v1a.91.91,0,0,0,.3.7c0,.1.1.1.2.1a1.38,1.38,0,0,0-.3.4c-.1.2-.1.3-.2.5H68.4V1.1a.91.91,0,0,0-.3-.7.91.91,0,0,0-.7-.3H63.8a.91.91,0,0,0-.7.3,2.19,2.19,0,0,0-.3.5c-.2,0-.3.1-.5.2a1.08,1.08,0,0,0-.3.7V13.5a1,1,0,0,0,1,1h6.9a.91.91,0,0,0,.7-.3c.1-.1.1-.1.1-.2a3.51,3.51,0,0,0,2.3.7,7.31,7.31,0,0,0,3-.6l.1.2a.91.91,0,0,0,.8.4l1.6-.1v2.3a1,1,0,0,0,1,1h3.6a.91.91,0,0,0,.7-.3,2.19,2.19,0,0,0,.3-.5c.2,0,.3-.1.5-.3a1.08,1.08,0,0,0,.3-.7V14.7h.4a3.85,3.85,0,0,0,2.4-.8c.2-.1.3-.3.4-.4l.5.5a4.28,4.28,0,0,0,1.7.6,15.52,15.52,0,0,0,2.3.1,8.88,8.88,0,0,0,3.6-.5,2.51,2.51,0,0,0,.7-.4c.1.1.2.3.3.4a1.43,1.43,0,0,0,1,.4h3.1a.91.91,0,0,0,.8-.4.76.76,0,0,0,.2-.4.55.55,0,0,0,.5-.3.78.78,0,0,0,.2-.8,4.12,4.12,0,0,0,.1-1.2ZM70.8,12.8H63.9V1.1h3.6v9.4h3.3Zm6.9.1-.6-.8a6.73,6.73,0,0,1-3.3.9c-1.45,0-2.44-.75-2.49-1.8a1.27,1.27,0,0,1,0-.2V9.7c0-1.4,1.1-1.9,3.6-1.9.8,0,1.1-.2,1.1-.8a1.22,1.22,0,0,0,0-.34c-.07-.29-.24-.46-.46-.46h-.11c-.24.07-.39.35-.39.79v.2H71.6v-1c0-1.31,1-1.92,3.48-2H76c2.74,0,3.84.55,3.84,2V11a5.39,5.39,0,0,0,.1,1.7Zm8.5,0h-.3A4.8,4.8,0,0,1,84,12.2V16H80.4V4.4h1.7l.6.9a6.2,6.2,0,0,1,3.4-1c1.5,0,2.5.8,2.5,2V11h.1C88.7,12.1,87.7,12.9,86.2,12.9Zm7.4,0-1,0c-2.29-.1-3.16-.64-3.16-1.88V6.2a1.55,1.55,0,0,1,1-1.56l.26-.11a6.41,6.41,0,0,1,1.78-.3l.4,0h1.38l.4,0a6.54,6.54,0,0,1,1.78.3l.26.11A1.56,1.56,0,0,1,97.6,6.2v3H93v1c0,.5.2.8.5.8h0c.27,0,.45-.33.45-.8V9.9h3.6V11c0,1.22-.84,1.76-3.06,1.88Zm5.5-.1c-.38,0-.52-.34-.58-1.14,0-.24,0-.53,0-.86V1.1h3.6V11.6c0,.21,0,.42,0,.62a2.21,2.21,0,0,0,.09.58Z" transform="translate(-0.1 0)" fill="#4f59a7"/><path d="M140.7,7.8l-.1-.1a.91.91,0,0,0,.3-.7V5.8a2.2,2.2,0,0,0-.4-1.3,2.7,2.7,0,0,0-.8-.7,4.28,4.28,0,0,0-1.6-.5,14.12,14.12,0,0,0-2.2-.1,8.88,8.88,0,0,0-3.6.5,3.11,3.11,0,0,0-.9.7c-.2-.2-.3-.4-.5-.5a4.07,4.07,0,0,0-2.4-.8,8.33,8.33,0,0,0-3.2.7l-.1-.2a1.23,1.23,0,0,0-.8-.4h-1.7c0-.1.1-.2.1-.4V1.1a.91.91,0,0,0-.3-.7.91.91,0,0,0-.7-.3h-3.6a.91.91,0,0,0-.7.3.76.76,0,0,0-.2.5l-.1-.1a4.92,4.92,0,0,0-1.7-.6,15.42,15.42,0,0,0-2.4-.2h-4.3a.91.91,0,0,0-.7.3,2.19,2.19,0,0,0-.3.5.76.76,0,0,0-.5.2,1.08,1.08,0,0,0-.3.7V13.4a1,1,0,0,0,1,1h3.6a.91.91,0,0,0,.7-.3,2.19,2.19,0,0,0,.3-.5c.2,0,.3-.1.5-.3a1.08,1.08,0,0,0,.3-.7V11a7.78,7.78,0,0,0,2.8-.5c.1-.1.3-.1.4-.2v1.2a5.26,5.26,0,0,0,.2,1.9,1.37,1.37,0,0,0,.5.8,1.43,1.43,0,0,0,1,.4h3.1a.85.85,0,0,1,.8,0h3.6a.91.91,0,0,0,.7-.3v-.1a1.43,1.43,0,0,0,1,.4h3.1a.91.91,0,0,0,.8-.4c0-.1.1-.1.1-.2a3.37,3.37,0,0,0,1.2.4,11.15,11.15,0,0,0,2.7.3,8.88,8.88,0,0,0,3.6-.5,1.82,1.82,0,0,0,1.1-1,2.34,2.34,0,0,0,.7-.7,2.3,2.3,0,0,0,.4-1.4v-2A2.11,2.11,0,0,0,140.7,7.8Zm-23.1-.5c0,1.15-.81,1.69-2.81,1.85-.46,0-1,0-1.59,0h-.6v3.6H109V1.1h4.88c2.75.06,3.72.58,3.72,2Zm.8-6.2H122V3h-3.6Zm.6,11.7c-.5,0-.6-.6-.6-2.1V4.4H122v7.1a4.89,4.89,0,0,0,.1,1.3Zm9.2.1v-.1c-.39,0-.54-.36-.58-1.24,0-.27,0-.58,0-1V7.5c0-.5-.2-.8-.6-.8-.2,0-.3.1-.5.2v6h-3.6V4.4h1.7l.07.1.53.8.07,0a6,6,0,0,1,2.43-.89,2.63,2.63,0,0,1,.49,0l.44,0c1.48,0,2.47.81,2.47,2v5.3a7.39,7.39,0,0,0,.05,1.1,1.17,1.17,0,0,0,0,.2ZM140.3,11h-.1c0,1.26-.9,1.79-3.36,1.88l-1,0h-.29c-2.38-.07-3.61-.65-3.61-1.59V10h2.9v.3a.76.76,0,0,0,.46.55h0a1.38,1.38,0,0,0,.62.15c.8,0,1.1-.2,1.1-.7s-1.2-.7-2.4-.9-2.4-.6-2.4-1.6V6.2c0-1.31.79-1.92,3.44-2h.84c2.69,0,3.72.43,3.72,1.59V7h-2.9V6.7c0-.25-.36-.44-.77-.48a.9.9,0,0,0-.23,0c-.7,0-1,.1-1,.5s.32.48.8.59l.38.07c.41.06.87.1,1.32.14,1.3.2,2.5.5,2.5,1.6Z" transform="translate(-0.1 0)" fill="#4f59a7"/><path d="M84.6,32.8h-.1a2.3,2.3,0,0,0-.4-1.4,3,3,0,0,0-.8-.8,4.28,4.28,0,0,0-1.7-.6,16.22,16.22,0,0,0-2.3-.1,8.88,8.88,0,0,0-3.6.5c-.1.1-.3.2-.4.3-.1-.1-.1-.2-.2-.3a1.08,1.08,0,0,0-.7-.3H72.7a.91.91,0,0,0-.8.4l-.1.2a6.57,6.57,0,0,0-3.2-.7,3.85,3.85,0,0,0-2.4.8c-.2.1-.3.3-.5.4a2.18,2.18,0,0,0-.5-.4,4.07,4.07,0,0,0-2.4-.8,8.33,8.33,0,0,0-3.2.7l-.1-.2a1.23,1.23,0,0,0-.8-.4H57a.91.91,0,0,0-.7.3c-.1.1-.2.2-.2.3l-.1-.1a4.28,4.28,0,0,0-1.7-.6,15.52,15.52,0,0,0-2.3-.1,8.88,8.88,0,0,0-3.6.5c-.1.1-.2.1-.3.2V27.8a.91.91,0,0,0-.3-.7,1.08,1.08,0,0,0-.7-.3H43.5c-.2,0-.3.1-.5.1a.75.75,0,0,0-.5-.1H38.9a.91.91,0,0,0-.7.3,2.19,2.19,0,0,0-.3.5c-.2,0-.3.1-.5.2a1.08,1.08,0,0,0-.3.7v1.7a2.92,2.92,0,0,0-.9-.2,15.52,15.52,0,0,0-2.3-.1,8.65,8.65,0,0,0-3.5.5,1.76,1.76,0,0,0-.9.8c-.2-.2-.3-.4-.5-.5a4.07,4.07,0,0,0-2.4-.8,5,5,0,0,0-1.2.2V27.8a1,1,0,0,0-1-1H21a.91.91,0,0,0-.7.3c-.1.1-.1.2-.2.3a.1.1,0,0,1-.1-.1,4.28,4.28,0,0,0-1.6-.5,14.12,14.12,0,0,0-2.2-.1,10.29,10.29,0,0,0-3.8.5,2.34,2.34,0,0,0-1.2,1,2.34,2.34,0,0,0-.7.7,2.5,2.5,0,0,0-.4,1.4v8.1a2.3,2.3,0,0,0,.4,1.4,3,3,0,0,0,.8.8,8.51,8.51,0,0,0,1.7.6,17,17,0,0,0,2.4.1,8.65,8.65,0,0,0,3.5-.5.76.76,0,0,1,.4-.2c0,.1.1.2.2.3a1.08,1.08,0,0,0,.7.3h3.6a.91.91,0,0,0,.7-.3v-.1a1.43,1.43,0,0,0,1,.4h3.1a.91.91,0,0,0,.8-.4.31.31,0,0,1,.1-.2,4.18,4.18,0,0,0,2.3.7,7.31,7.31,0,0,0,3-.6l.1.2a.91.91,0,0,0,.8.4l2-.1c.2,0,.3-.1.5-.2a1.33,1.33,0,0,0,.8.3h3.1a.71.71,0,0,0,.6-.3,1.6,1.6,0,0,0,.8.3h3.1a.91.91,0,0,0,.8-.4c.1-.1.1-.1.1-.2a4.28,4.28,0,0,0,1.7.6,15.52,15.52,0,0,0,2.3.1,8.88,8.88,0,0,0,3.6-.5c.1-.1.3-.2.4-.3.1.1.1.2.2.3a1.08,1.08,0,0,0,.7.3H60a.91.91,0,0,0,.7-.3v-.1a1.43,1.43,0,0,0,1,.4h3.2v.5a3.75,3.75,0,0,0,.1,1.1,3,3,0,0,0,.4.8,1.9,1.9,0,0,0,1.1.7,5.07,5.07,0,0,0,1.3.2h3.1a7.77,7.77,0,0,0,1.6-.2,3.13,3.13,0,0,0,1-.5l.6-.6c.1,0,.1-.1.2-.1a3.07,3.07,0,0,0,1-1.5,1.27,1.27,0,0,0,.1-.6c.3.1.7.2,1.1.3a15.52,15.52,0,0,0,2.3.1,8.88,8.88,0,0,0,3.6-.5,1.82,1.82,0,0,0,1.1-1,2.34,2.34,0,0,0,.7-.7,2.3,2.3,0,0,0,.4-1.4V36.7a.37.37,0,0,0-.1-.3c0-.1.1-.2.1-.3Zm-68,1.5v-.6h2.7v.5H16.8A.34.34,0,0,0,16.6,34.3ZM20.2,32H17V30.4a.71.71,0,0,0-.7-.8c-.5,0-.7.3-.7.8v6.5a.71.71,0,0,0,.7.8c.5,0,.7-.3.7-.8V35.3h3.2v2.5a1.62,1.62,0,0,1,0,.22c-.06,1.21-1.18,1.68-4,1.68-3.2,0-4.3-.5-4.3-1.9V29.7c0-1.4,1.2-1.9,4.3-1.9,2.9,0,4,.5,4,1.8Zm6.1,7.5v-.1c-.5,0-.6-.6-.6-2.1V34.1a1.09,1.09,0,0,0,0-.18c0-.35-.2-.57-.48-.61H25.1c-.2,0-.3.1-.5.2v6H21V27.8h3.6v3.8a3.2,3.2,0,0,1,1.9-.69h.3a3.54,3.54,0,0,1,1,.14,1.94,1.94,0,0,1,1.47,1.64.49.49,0,0,1,0,.12v5.3c0,.25,0,.5,0,.72a2.42,2.42,0,0,0,.07.58.3.3,0,0,0,0,.1Zm10.1,0-.7-.8a5.71,5.71,0,0,1-3.2.9,2.39,2.39,0,0,1-2.37-1.26A1.53,1.53,0,0,1,30,37.7V36.4c0-1.4,1.1-1.9,3.6-1.9.8,0,1.1-.2,1.1-.8a1.05,1.05,0,0,0-.12-.54v0a.42.42,0,0,0-.38-.24c-.3,0-.5.3-.5.8v.2H30.3v-1c0-1.4,1.1-2,4-2,2.06,0,3.23.24,3.75.87l.06.08a1.72,1.72,0,0,1,.29,1v4.9a5.39,5.39,0,0,0,.1,1.7Zm3.4-.1c-.5,0-.6-.6-.6-2.1V27.7h3.6V38.1a4.89,4.89,0,0,0,.1,1.3Zm4.5,0c-.5,0-.6-.6-.6-2.1V27.7h3.6V38.1a4.89,4.89,0,0,0,.1,1.3Zm7.9.2-1,0c-2.29-.1-3.16-.64-3.16-1.88V32.8a1.55,1.55,0,0,1,1-1.56l.26-.11a6.41,6.41,0,0,1,1.78-.3l.4,0h1.38l.4,0a6.54,6.54,0,0,1,1.78.3l.26.11a1.56,1.56,0,0,1,.92,1.56v3.1H51.6v1c0,.5.2.8.5.8h0c.27,0,.45-.33.45-.8v-.3h3.6v1.1c0,1.22-.84,1.76-3.06,1.88Zm10.2-.2c-.39,0-.54-.36-.58-1.24,0-.27,0-.58,0-1V34.1c0-.5-.2-.8-.6-.8-.2,0-.3.1-.5.2v6H57.1V31h1.7l.7.8a6,6,0,0,1,3.4-1,3.54,3.54,0,0,1,1,.14,1.94,1.94,0,0,1,1.47,1.64.49.49,0,0,1,0,.12V38c0,.25,0,.5,0,.72a2.42,2.42,0,0,0,.07.58.3.3,0,0,0,0,.1Zm4.1,1.5v-1H69v.3a.37.37,0,0,0,.14.3h0a.78.78,0,0,0,.55.19h.1c.6,0,.9-.2.9-.7V38.5a3.41,3.41,0,0,1-2.2.7,2.81,2.81,0,0,1-1.68-.47l0,0A1.77,1.77,0,0,1,66,37.2V32.7c0-1.1,1-2,2.5-2a6,6,0,0,1,3.4,1l.7-.8h1.7v8.7h.1c0,2.3-.8,3.1-2.9,3.1H68.4A2.11,2.11,0,0,1,67,42.34,1.71,1.71,0,0,1,66.5,40.9Zm12.9-1.3-1,0c-2.29-.1-3.16-.64-3.16-1.88V32.8a1.55,1.55,0,0,1,1-1.56l.26-.11a6.41,6.41,0,0,1,1.78-.3l.4,0H80l.4,0a6.54,6.54,0,0,1,1.78.3l.26.11a1.56,1.56,0,0,1,.92,1.56v3.1H78.8v1c0,.5.2.8.5.8h0c.27,0,.45-.33.45-.8v-.3h3.6v1.1c0,1.22-.84,1.76-3.06,1.88Z" transform="translate(-0.1 0)" fill="#4f59a7"/><path d="M130.6,34.4l-.1-.1a.91.91,0,0,0,.3-.7V32.5a2.2,2.2,0,0,0-.4-1.3,2.7,2.7,0,0,0-.8-.7A4.28,4.28,0,0,0,128,30a14.12,14.12,0,0,0-2.2-.1,8.88,8.88,0,0,0-3.6.5,3.11,3.11,0,0,0-.9.7,1.21,1.21,0,0,0-.5-.5,4.07,4.07,0,0,0-2.4-.8,8.33,8.33,0,0,0-3.2.7l-.1-.2a1.23,1.23,0,0,0-.8-.4h-1.7c0-.1.1-.3.1-.4V27.6a.91.91,0,0,0-.3-.7,1.08,1.08,0,0,0-.7-.3h-3.6a.91.91,0,0,0-.7.3,2.19,2.19,0,0,0-.3.5c-.2,0-.3.1-.5.2a1.08,1.08,0,0,0-.3.7V30a2.92,2.92,0,0,0-.9-.2,16.22,16.22,0,0,0-2.3-.1,8.88,8.88,0,0,0-3.6.5c-.1,0-.1.1-.2.1V29.2a2.5,2.5,0,0,0-.4-1.4,3,3,0,0,0-.8-.8,4.28,4.28,0,0,0-1.6-.5,14.12,14.12,0,0,0-2.2-.1,10.29,10.29,0,0,0-3.8.5,2.34,2.34,0,0,0-1.2,1,2.34,2.34,0,0,0-.7.7,2.5,2.5,0,0,0-.4,1.4v8.1a2.3,2.3,0,0,0,.4,1.4,3,3,0,0,0,.8.8,8.51,8.51,0,0,0,1.7.6,17,17,0,0,0,2.4.1,8.65,8.65,0,0,0,3.5-.5,4.7,4.7,0,0,0,.9-.6,1.76,1.76,0,0,0,.5.4,4.28,4.28,0,0,0,1.7.6,15.52,15.52,0,0,0,2.3.1,8.88,8.88,0,0,0,3.6-.5c.2-.1.5-.2.6-.4.1.1.2.3.3.4a1.43,1.43,0,0,0,1,.4H111a.85.85,0,0,1,.8,0h3.6a.91.91,0,0,0,.7-.3v-.1a1.43,1.43,0,0,0,1,.4h3.1a.91.91,0,0,0,.8-.4.35.35,0,0,0,.1-.2,7.26,7.26,0,0,0,1.2.5,11.15,11.15,0,0,0,2.7.3,8.88,8.88,0,0,0,3.6-.5,1.82,1.82,0,0,0,1.1-1,2.34,2.34,0,0,0,.7-.7,2.3,2.3,0,0,0,.4-1.4v-2C131,35.2,130.9,34.8,130.6,34.4ZM94.4,39.7c-3.1,0-4.3-.5-4.3-1.9V29.7a1.58,1.58,0,0,1,.19-.8c.43-.8,1.69-1.1,4.11-1.1,2.9,0,4,.5,4,1.8V32H95.2V30.4a.71.71,0,0,0-.7-.8.66.66,0,0,0-.51.18.89.89,0,0,0-.19.62v6.5a.71.71,0,0,0,.7.8.6.6,0,0,0,.67-.52,1.27,1.27,0,0,0,0-.28V35.3h3.2v2.6a1.64,1.64,0,0,1-.1.6C98,39.36,96.8,39.7,94.4,39.7Zm.4-5.4v-.6h2.6v.5H95A.29.29,0,0,0,94.8,34.3Zm12.6,3.4a.76.76,0,0,1,0,.15c-.13,1.21-1.28,1.65-4.09,1.65s-4-.44-4.09-1.65a.76.76,0,0,1,0-.15V32.8a2.44,2.44,0,0,1,0-.27c.09-1.28,1.22-1.83,4.09-1.83s4,.47,4.09,1.85a2,2,0,0,1,0,.25Zm.8-9.9h3.6v1.9h-3.6Zm.7,11.6c-.5,0-.6-.6-.6-2.1V31h3.6v7.1a4.89,4.89,0,0,0,.1,1.3Zm9.2,0a.4.4,0,0,1-.35-.18,4,4,0,0,1-.25-1.92V34.1a.83.83,0,0,0-.25-.69h0a.53.53,0,0,0-.34-.1c-.2,0-.3.1-.5.2v6h-3.6V31h1.7l.66.76,0,0a5.88,5.88,0,0,1,2.89-1,2.75,2.75,0,0,1,.41,0h.1c1.5,0,2.5.8,2.5,2v5.3a4.89,4.89,0,0,0,.1,1.3Zm12-5.9H127v-.3c0-.3-.5-.5-1-.5a1.38,1.38,0,0,0-.86.17h0a.39.39,0,0,0-.13.33c0,.6,1.3.7,2.5.9s2.5.5,2.5,1.6v1.9a1.48,1.48,0,0,1-1,1.5,8.27,8.27,0,0,1-3.12.4c-2.7,0-4.1-.6-4.1-1.6V36.6h2.9V37a.51.51,0,0,0,.29.39,1.52,1.52,0,0,0,.81.21c.8,0,1.1-.2,1.1-.6,0-.23-.18-.39-.46-.51a11.36,11.36,0,0,0-1.94-.39,6.06,6.06,0,0,1-1.35-.36c-.61-.25-1.05-.64-1.05-1.24V32.8c0-1.31.79-1.92,3.44-2h.36l1,0c2.33.06,3.24.49,3.24,1.58Z" transform="translate(-0.1 0)" fill="#4f59a7"/><path d="M38.6,7v3.2c0,.5.2.8.5.8s.5-.3.5-.8V7c0-.5-.2-.8-.5-.8S38.6,6.5,38.6,7Z" transform="translate(-0.1 0)" fill="#4f59a7"/><path d="M74.7,10.1c0,.5.2.7.8.7a1.09,1.09,0,0,0,.5-.1V9.2C75.6,9.4,74.7,9.3,74.7,10.1Z" transform="translate(-0.1 0)" fill="#4f59a7"/><path d="M85.1,7.5c0-.5-.2-.8-.6-.8-.2,0-.3.1-.5.2v3.6c.2.1.3.2.5.2s.6-.3.6-.8Z" transform="translate(-0.1 0)" fill="#4f59a7"/><path d="M93,7v.6h1.4V7a.71.71,0,0,0-.7-.8C93.2,6.2,93,6.5,93,7Z" transform="translate(-0.1 0)" fill="#4f59a7"/><path d="M113.2,3.1h-.7V7.3h.7c.5,0,.7-.3.7-.8V3.9C114,3.4,113.7,3.1,113.2,3.1Z" transform="translate(-0.1 0)" fill="#4f59a7"/><path d="M33.5,36.7c0,.5.2.7.8.7a1.09,1.09,0,0,0,.5-.1V35.8C34.3,36,33.5,35.9,33.5,36.7Z" transform="translate(-0.1 0)" fill="#4f59a7"/><path d="M51.6,33.6v.6H53v-.6a.71.71,0,1,0-1.4,0Z" transform="translate(-0.1 0)" fill="#4f59a7"/><path d="M70.3,33.3c-.3,0-.6.3-.6.8V36c0,.5.2.8.6.8.2,0,.3-.1.5-.2V33.4A.9.9,0,0,0,70.3,33.3Z" transform="translate(-0.1 0)" fill="#4f59a7"/><path d="M78.8,33.6v.6h1.4v-.6a.71.71,0,1,0-1.4,0Z" transform="translate(-0.1 0)" fill="#4f59a7"/><path d="M103.8,33.6c0-.5-.2-.8-.5-.8s-.5.3-.5.8v3.2c0,.5.2.8.5.8s.5-.3.5-.8Z" transform="translate(-0.1 0)" fill="#4f59a7"/><path d="M6.1,1C3,1,1.8,1.5,1.8,2.9V11c0,1.5,1.2,2,4.3,2,2.9,0,4-.5,4-1.8V8.6H6.9v1.6a.71.71,0,0,1-.7.8c-.5,0-.7-.3-.7-.8V3.7a.71.71,0,0,1,.7-.8c.5,0,.7.3.7.8V5.3h3.2V2.8C10.1,1.5,9,1,6.1,1Z" transform="translate(-0.1 0)" fill="#eee"/><path d="M15.5,4.4v6c-.2.1-.3.2-.5.2s-.6-.3-.6-.8V4.4H10.8V11c0,1.1,1,1.9,2.5,1.9a6,6,0,0,0,3.4-1l.6.8h1.8a4.89,4.89,0,0,1-.1-1.3v-7Z" transform="translate(-0.1 0)" fill="#eee"/><path d="M20.1,6.2V7.9c0,1.1,1.2,1.4,2.4,1.6s2.4.3,2.4.9-.3.6-1.1.6c-.6,0-1.1-.3-1.1-.6v-.3H19.8v1.3c0,1.1,1.4,1.6,4.1,1.6,3,0,4.1-.5,4.1-1.9v-2c0-1.1-1.3-1.4-2.5-1.6S23,7.2,23,6.6c0-.4.3-.5,1-.5.5,0,1,.2,1,.5V7h3V5.9c0-1.2-1.1-1.6-4-1.6S20.1,4.7,20.1,6.2Z" transform="translate(-0.1 0)" fill="#eee"/><path d="M31.3,2.4l-2,1.9h-.6V6.2h.6v4.4c0,1.5,1.3,2.3,3.8,2.3a5.28,5.28,0,0,0,1.3-.1V10.9a1.49,1.49,0,0,1-.6.1c-.6,0-.9-.3-.9-.8V6.3h1.5V4.4H32.9v-2Z" transform="translate(-0.1 0)" fill="#eee"/><path d="M39.2,4.2h-.54c-2.27,0-3.29.46-3.51,1.5a2.46,2.46,0,0,0,0,.49V11c0,1.4,1.1,1.9,4.1,1.9s4.1-.5,4.1-1.9V6.2C43.3,4.7,42.2,4.2,39.2,4.2Zm.5,6c0,.5-.2.8-.5.8h-.05c-.27,0-.45-.33-.45-.8V7c0-.47.18-.77.45-.8h.05c.3,0,.5.3.5.8Z" transform="translate(-0.1 0)" fill="#eee"/><path d="M44.1,4.4v8.4h3.6v-6c.2-.1.3-.2.5-.2.4,0,.6.3.6.8v5.3h3.6v-6c.2-.1.3-.2.5-.2.4,0,.6.3.6.8v3.2c0,1.5.1,2.1.6,2.1h3.1a4.89,4.89,0,0,1-.1-1.3V6.2c0-1.1-1-1.9-2.5-1.9a4.53,4.53,0,0,0-2.7.7,3,3,0,0,0-2-.7,6,6,0,0,0-3.4,1l-.6-.8H44.1Z" transform="translate(-0.1 0)" fill="#eee"/><polygon points="66.3 1.2 63.7 1.2 63.7 12.8 70.6 12.8 70.6 10.6 67.3 10.6 67.3 2.2 67.3 1.2 66.3 1.2" fill="#eee"/><path d="M79.6,11V6.2c0-1.31-1-1.92-3.64-2h-.88c-2.66,0-3.68.55-3.68,2v1h3.4V7c0-.5.2-.8.5-.8h.12a.57.57,0,0,1,.54.45A1.22,1.22,0,0,1,76,7c0,.6-.3.8-1.1.8-2.5,0-3.6.5-3.6,1.9V11a1.27,1.27,0,0,0,0,.2c.12,1,1.08,1.7,2.49,1.7a5.82,5.82,0,0,0,3.3-.9l.6.8,2-.1A5,5,0,0,1,79.6,11Zm-3.5-.3H76l-.15.06-.14,0h-.32a.63.63,0,0,1-.59-.69.64.64,0,0,1,.48-.7.84.84,0,0,1,.24-.06c.17,0,.34-.06.48-.1l.1,0Z" transform="translate(-0.1 0)" fill="#eee"/><path d="M86.1,4.2a6,6,0,0,0-3.4,1l-.6-.9H80.4V16H84V12.2a3.48,3.48,0,0,0,1.9.69h.3c1.5,0,2.5-.8,2.5-1.9V6.2C88.7,5,87.6,4.2,86.1,4.2Zm-1.6,6.3c-.2,0-.3-.1-.5-.2V6.8a1.69,1.69,0,0,1,.5-.2c.3,0,.6.3.6.8V9.7C85.1,10.2,84.9,10.5,84.5,10.5Z" transform="translate(-0.1 0)" fill="#eee"/><path d="M97.7,9.2v-3a1.55,1.55,0,0,0-1-1.56l-.26-.11a6.54,6.54,0,0,0-1.78-.3l-.4,0H92.86l-.4,0a6.41,6.41,0,0,0-1.78.3l-.26.11A1.56,1.56,0,0,0,89.5,6.2V11c0,1.22.84,1.76,3.06,1.88l1,0,.94,0c2.29-.1,3.16-.64,3.16-1.88V9.9H94.1v.3c0,.5-.2.8-.5.8h0c-.27,0-.45-.33-.45-.8v-1ZM93,7a1.09,1.09,0,0,1,0-.18.72.72,0,0,1,.55-.61h.28a.62.62,0,0,1,.55.61,1.09,1.09,0,0,1,0,.18v.6H93Z" transform="translate(-0.1 0)" fill="#eee"/><path d="M101.1,1.2H98.5v9.6c0,1.5.1,2.1.6,2.1h3.1a4.89,4.89,0,0,1-.1-1.3V1.2Z" transform="translate(-0.1 0)" fill="#eee"/><path d="M113.88,1.11h-5V12.8h3.6V9.2h.7c.6,0,1.13,0,1.59,0,2-.17,2.71-.71,2.71-1.85V3.1C117.59,1.8,116.57,1.19,113.88,1.11ZM114,6.5a.71.71,0,0,1-.63.79h-.77V3.1h.7c.5,0,.7.3.7.8Z" transform="translate(-0.1 0)" fill="#eee"/><polygon points="119.3 1.2 118.3 1.2 118.3 2.2 118.3 3 120.9 3 121.9 3 121.9 2 121.9 1.2 119.3 1.2" fill="#eee"/><path d="M122.1,12.8a4.89,4.89,0,0,1-.1-1.3V4.4h-3.6v6.3c0,1.5.1,2.1.6,2.1Z" transform="translate(-0.1 0)" fill="#eee"/><path d="M122.9,4.4v8.4h3.6v-6c.2-.1.3-.2.5-.2.4,0,.6.3.6.8v3.2c0,1.5.1,2.1.6,2.1h3.1a4.89,4.89,0,0,1-.1-1.3V6.2c0-1.1-1-1.9-2.5-1.9a6,6,0,0,0-3.4,1l-.6-.8h-1.8Z" transform="translate(-0.1 0)" fill="#eee"/><path d="M136,4.2c-3,0-4,.5-4,1.9V7.8c0,1.1,1.2,1.4,2.4,1.6s2.4.3,2.4.9-.3.6-1.1.6c-.6,0-1.1-.3-1.1-.6V10h-2.9v1.3c0,1.1,1.4,1.6,4.1,1.6,3,0,4.1-.5,4.1-1.9V9.1c0-1.1-1.3-1.4-2.5-1.6s-2.5-.3-2.5-.9c0-.4.3-.5,1-.5.5,0,1,.2,1,.5V7h2.9V5.9C140,4.7,138.9,4.2,136,4.2Z" transform="translate(-0.1 0)" fill="#eee"/><path d="M20.2,37.8V35.2H17v1.6a.71.71,0,0,1-.7.8c-.5,0-.7-.3-.7-.8V30.3a.71.71,0,0,1,.7-.8c.5,0,.7.3.7.8V32h3.2V29.4c0-1.3-1.1-1.8-4-1.8-3.2,0-4.3.5-4.3,1.9v8.1c0,1.4,1.2,1.9,4.3,1.9S20.2,39.1,20.2,37.8Z" transform="translate(-0.1 0)" fill="#eee"/><path d="M22,27.8H21V39.5h3.6v-6c.2-.1.3-.2.5-.2s.6.3.6.8v3.2c0,1.5.1,2.1.6,2.1h3.1a4.89,4.89,0,0,1-.1-1.3V32.8c0-1.1-1-1.9-2.5-1.9a4.39,4.39,0,0,0-2.2.7V27.8Z" transform="translate(-0.1 0)" fill="#eee"/><path d="M38.3,37.6V32.7a1.75,1.75,0,0,0-.19-.85l-.06-.08C37.6,31,36.42,30.7,34.2,30.7c-2.9,0-4,.5-4,2v1h3.4v-.2c0-.5.2-.8.5-.8s.42.16.48.44v0c0,.1,0,.22,0,.34,0,.6-.3.8-1.1.8-2.5,0-3.6.5-3.6,1.9v1.3a1.6,1.6,0,0,0,.23.84A2.52,2.52,0,0,0,32.4,39.4a5.27,5.27,0,0,0,3.2-.9l.7.8,2-.1C38.4,39,38.3,38.9,38.3,37.6Zm-4.1-.2c-.7,0-.8-.3-.8-.7,0-.9.9-.7,1.3-.9v1.5a.85.85,0,0,1-.25.09Z" transform="translate(-0.1 0)" fill="#eee"/><path d="M39.1,37.3c0,1.5.1,2.1.6,2.1h3.1a4.89,4.89,0,0,1-.1-1.3V27.7H39.1Z" transform="translate(-0.1 0)" fill="#eee"/><path d="M46.2,27.8H43.6v9.6c0,1.5.1,2.1.6,2.1h3.1a4.89,4.89,0,0,1-.1-1.3V27.8Z" transform="translate(-0.1 0)" fill="#eee"/><path d="M56.3,35.9V32.8a1.55,1.55,0,0,0-1-1.56L55,31.13a6.54,6.54,0,0,0-1.78-.3l-.4,0H51.46l-.4,0a6.41,6.41,0,0,0-1.78.3l-.26.11a1.56,1.56,0,0,0-.92,1.56v4.9c0,1.22.84,1.76,3.06,1.88l1,0,.94,0c2.29-.1,3.16-.64,3.16-1.88V36.6H52.7v.3c0,.5-.2.8-.5.8h-.05c-.27,0-.45-.33-.45-.8v-1Zm-4.7-2.3a.71.71,0,0,1,.7-.8h.14a.62.62,0,0,1,.55.61,1.09,1.09,0,0,1,0,.18v.6H51.6Z" transform="translate(-0.1 0)" fill="#eee"/><path d="M57.1,31v8.4h3.6v-6c.2-.1.3-.2.5-.2.4,0,.6.3.6.8v3.2c0,1.5.1,2.1.6,2.1h3.1a4.89,4.89,0,0,1-.1-1.3V32.7c0-1.1-1-1.9-2.5-1.9a6,6,0,0,0-3.4,1l-.7-.8Z" transform="translate(-0.1 0)" fill="#eee"/><path d="M72.7,31l-.7.8a6,6,0,0,0-3.4-1c-1.5,0-2.5.8-2.5,2v4.5a1.81,1.81,0,0,0,.69,1.41l0,0a2.75,2.75,0,0,0,1.78.57,4.21,4.21,0,0,0,2.1-.65l.1,0v1.5c0,.5-.3.7-.9.7h-.1c-.37,0-.57-.11-.65-.29h0a.42.42,0,0,1,0-.2V40H66.6v1A1.85,1.85,0,0,0,67,42.34a1.92,1.92,0,0,0,1.51.46h3.1c2.1,0,2.9-.8,2.9-3.1V31Zm-2.4,5.9c-.3,0-.6-.3-.6-.8v-2a1.09,1.09,0,0,1,0-.18c0-.35.2-.57.48-.61h.11c.2,0,.3.1.5.2v3.2C70.6,36.8,70.5,36.9,70.3,36.9Z" transform="translate(-0.1 0)" fill="#eee"/><path d="M83.5,35.9V32.8a1.55,1.55,0,0,0-1-1.56l-.26-.11a6.54,6.54,0,0,0-1.78-.3l-.4,0H78.66l-.4,0a6.41,6.41,0,0,0-1.78.3l-.26.11a1.56,1.56,0,0,0-.92,1.56v4.9c0,1.22.84,1.76,3.06,1.88l1,0,.94,0c2.29-.1,3.16-.64,3.16-1.88V36.6H79.9v.3c0,.5-.2.8-.5.8h-.05c-.27,0-.45-.33-.45-.8v-1Zm-4.7-2.3a.71.71,0,0,1,.7-.8h.14a.62.62,0,0,1,.55.61,1.09,1.09,0,0,1,0,.18v.6H78.8Z" transform="translate(-0.1 0)" fill="#eee"/><path d="M94.5,27.6c-3.2,0-4.3.5-4.3,1.9v8.1c0,1.4,1.2,1.9,4.3,1.9,2.9,0,4-.5,4-1.8V35.1H95.3v1.6a.71.71,0,0,1-.7.8c-.5,0-.7-.3-.7-.8V30.2a.71.71,0,0,1,.7-.8c.5,0,.7.3.7.8V32h3.2V29.4C98.4,28.1,97.4,27.6,94.5,27.6Z" transform="translate(-0.1 0)" fill="#eee"/><path d="M107.39,32.55c-.13-1.22-1.28-1.75-4.09-1.75s-4,.44-4.09,1.73a2.44,2.44,0,0,0,0,.27v4.9a.76.76,0,0,0,0,.15c.08,1.29,1.2,1.75,4.09,1.75s4-.46,4.09-1.75a.76.76,0,0,0,0-.15V32.8A2,2,0,0,0,107.39,32.55ZM102.8,33.6c0-.5.2-.8.5-.8s.5.3.5.8v3.2c0,.5-.2.8-.5.8s-.5-.3-.5-.8Z" transform="translate(-0.1 0)" fill="#eee"/><polygon points="109.1 27.8 108.1 27.8 108.1 28.8 108.1 29.6 110.7 29.6 111.7 29.6 111.7 28.6 111.7 27.8 109.1 27.8" fill="#eee"/><path d="M111.9,39.4a4.89,4.89,0,0,1-.1-1.3V31h-3.6v6.3c0,1.5.1,2.1.6,2.1Z" transform="translate(-0.1 0)" fill="#eee"/><path d="M112.7,31v8.4h3.6v-6c.2-.1.3-.2.5-.2.4,0,.6.3.6.8v3.2c0,1.5.1,2.1.6,2.1h3.1A4.89,4.89,0,0,1,121,38V32.7c0-1.1-1-1.9-2.5-1.9a6,6,0,0,0-3.4,1l-.6-.8Z" transform="translate(-0.1 0)" fill="#eee"/><path d="M125.9,30.8c-3,0-4,.5-4,1.9v1.7c0,1.1,1.2,1.4,2.4,1.6s2.4.3,2.4.9-.3.6-1.1.6c-.6,0-1.1-.3-1.1-.6v-.3h-2.9V38c0,1.1,1.4,1.6,4.1,1.6,3,0,4.1-.5,4.1-1.9V35.8c0-1.1-1.3-1.4-2.5-1.6s-2.5-.3-2.5-.9c0-.4.3-.5,1-.5.5,0,1,.2,1,.5v.3h2.9V32.5C129.8,31.3,128.8,30.8,125.9,30.8Z" transform="translate(-0.1 0)" fill="#eee"/><path d="M111.7,21.8a1,1,0,0,1-1,1H76v-2h34.7A1,1,0,0,1,111.7,21.8Z" transform="translate(-0.1 0)" fill="#a0d6c0"/><path d="M66.7,21.2c-.1.1-.2.1-.2.2a2,2,0,0,0-.6,1.4H31.3a1,1,0,0,1-1-1,1.08,1.08,0,0,1,1-1H66.6C66.6,20.9,66.7,21.1,66.7,21.2Z" transform="translate(-0.1 0)" fill="#a0d6c0"/><path d="M71,24.2v.1a.61.61,0,1,1-1.2,0v-.1a.61.61,0,1,0,1.2,0Z" transform="translate(-0.1 0)" fill="#fff"/><path d="M75,22.4V20.8H73.9v-.7H71.4l-.3.7h-.4c-.3,0-.5-.3-.5-.7v-.7c0-.4.2-.7.6-.7s.6.2.6.5h2.5v-.7c0-1-1.2-1.5-3.1-1.5-2.1,0-3.4.6-3.4,1.6V20a1.47,1.47,0,0,0,1.1,1.5c-1.2.2-1.7.9-1.7,1.7v1.7c0,1.2.9,1.6,3.4,1.6a2.67,2.67,0,0,0,1.7-.4,4.14,4.14,0,0,0,2.1.4,3.08,3.08,0,0,0,1-.1V24.8a1,1,0,0,1-.3.1c-.5,0-.7-.2-.7-.7V22.4Zm-4,1.8a.61.61,0,1,1-1.2,0V23.1c0-.4.2-.8.4-.8H71Z" transform="translate(-0.1 0)" fill="#48bc95"/></svg>